# Blender 4.3.0
# www.blender.org
mtllib boss_room.mtl
o bossroom_rough
v 60.000000 12.416672 59.999878
v 60.000000 12.416672 60.499878
v 60.000000 -12.583328 59.999878
v 60.000000 -12.583328 60.499878
v -60.000000 12.416672 60.499878
v -60.000000 12.416672 59.999878
v -60.000000 -12.583328 60.499878
v -60.000000 -12.583328 59.999878
v -60.000000 12.416672 59.999878
v 60.000000 12.416672 59.999878
v -60.000000 -12.583328 59.999878
v 60.000000 -12.583328 59.999878
v -59.500000 12.416668 11.985869
v -59.500000 12.416672 59.999878
v -59.500000 -12.583332 11.985871
v -59.500000 -12.583328 59.999878
v -59.500000 12.416672 59.999878
v -60.000000 12.416672 59.999878
v -59.500000 -12.583328 59.999878
v -60.000000 -12.583328 59.999878
v -60.000000 12.416672 59.999878
v -60.000000 12.416668 11.985869
v -60.000000 -12.583328 59.999878
v -60.000000 -12.583332 11.985871
v -60.000000 12.416668 11.985869
v -59.500000 12.416668 11.985869
v -60.000000 -12.583332 11.985871
v -59.500000 -12.583332 11.985871
v -59.500000 12.416667 0.999877
v -59.500000 12.416668 11.999877
v -59.500000 0.416667 0.999878
v -59.500000 0.416668 11.999878
v -59.500000 12.416668 11.999877
v -60.000000 12.416668 11.999877
v -59.500000 0.416668 11.999878
v -60.000000 0.416668 11.999878
v -60.000000 12.416668 11.999877
v -60.000000 12.416667 0.999877
v -60.000000 0.416668 11.999878
v -60.000000 0.416667 0.999878
v -60.000000 0.416667 0.999878
v -59.500000 0.416667 0.999878
v -60.000000 0.416668 11.999878
v -59.500000 0.416668 11.999878
v -60.000000 12.416667 0.999877
v -59.500000 12.416667 0.999877
v -60.000000 0.416667 0.999878
v -59.500000 0.416667 0.999878
v 60.000000 -12.083338 -60.000122
v 60.000000 -12.083328 59.999878
v 60.000000 -12.583338 -60.000122
v 60.000000 -12.583328 59.999878
v -60.000000 -12.083328 59.999878
v 60.000000 -12.083328 59.999878
v -60.000000 -12.083338 -60.000122
v 60.000000 -12.083338 -60.000122
v 60.000000 -12.083328 59.999878
v -60.000000 -12.083328 59.999878
v 60.000000 -12.583328 59.999878
v -60.000000 -12.583328 59.999878
v -60.000000 -12.083328 59.999878
v -60.000000 -12.083338 -60.000122
v -60.000000 -12.583328 59.999878
v -60.000000 -12.583338 -60.000122
v -60.000000 -12.083338 -60.000122
v 60.000000 -12.083338 -60.000122
v -60.000000 -12.583338 -60.000122
v 60.000000 -12.583338 -60.000122
v -59.500000 12.416662 -60.000122
v -59.500000 12.416667 0.999877
v -59.500000 -12.583338 -60.000122
v -59.500000 -12.583333 0.999879
v -59.500000 12.416667 0.999877
v -60.000000 12.416667 0.999877
v -59.500000 -12.583333 0.999879
v -60.000000 -12.583333 0.999879
v -60.000000 12.416667 0.999877
v -60.000000 12.416662 -60.000122
v -60.000000 -12.583333 0.999879
v -60.000000 -12.583338 -60.000122
v -60.000000 12.416662 -60.000122
v -59.500000 12.416662 -60.000122
v -60.000000 -12.583338 -60.000122
v -59.500000 -12.583338 -60.000122
v 59.500000 12.416666 -11.986115
v 59.500000 12.416662 -60.000122
v 59.500000 -12.583334 -11.986114
v 59.500000 -12.583338 -60.000122
v 59.500000 12.416662 -60.000122
v 60.000000 12.416662 -60.000122
v 59.500000 -12.583338 -60.000122
v 60.000000 -12.583338 -60.000122
v 60.000000 12.416662 -60.000122
v 60.000000 12.416666 -11.986115
v 60.000000 -12.583338 -60.000122
v 60.000000 -12.583334 -11.986114
v 60.000000 12.416666 -11.986115
v 59.500000 12.416666 -11.986115
v 60.000000 -12.583334 -11.986114
v 59.500000 -12.583334 -11.986114
v 59.500000 12.416672 59.999878
v 59.500000 12.416667 -1.000123
v 59.500000 -12.583328 59.999878
v 59.500000 -12.583333 -1.000121
v 59.500000 12.416667 -1.000123
v 60.000000 12.416667 -1.000123
v 59.500000 -12.583333 -1.000121
v 60.000000 -12.583333 -1.000121
v 60.000000 12.416667 -1.000123
v 60.000000 12.416672 59.999878
v 60.000000 -12.583333 -1.000121
v 60.000000 -12.583328 59.999878
v 60.000000 12.416672 59.999878
v 59.500000 12.416672 59.999878
v 60.000000 -12.583328 59.999878
v 59.500000 -12.583328 59.999878
v 59.500000 12.416667 -1.000123
v 59.500000 12.416666 -12.000123
v 59.500000 0.416667 -1.000122
v 59.500000 0.416666 -12.000122
v 59.500000 12.416666 -12.000123
v 60.000000 12.416666 -12.000123
v 59.500000 0.416666 -12.000122
v 60.000000 0.416666 -12.000122
v 60.000000 12.416666 -12.000123
v 60.000000 12.416667 -1.000123
v 60.000000 0.416666 -12.000122
v 60.000000 0.416667 -1.000122
v 60.000000 0.416667 -1.000122
v 59.500000 0.416667 -1.000122
v 60.000000 0.416666 -12.000122
v 59.500000 0.416666 -12.000122
v 60.000000 12.416667 -1.000123
v 59.500000 12.416667 -1.000123
v 60.000000 0.416667 -1.000122
v 59.500000 0.416667 -1.000122
v 60.000000 12.416662 -60.500122
v 60.000000 12.416662 -60.000122
v 60.000000 -12.583338 -60.500122
v 60.000000 -12.583338 -60.000122
v 60.000000 12.416662 -60.000122
v -60.000000 12.416662 -60.000122
v 60.000000 -12.583338 -60.000122
v -60.000000 -12.583338 -60.000122
v -60.000000 12.416662 -60.000122
v -60.000000 12.416662 -60.500122
v -60.000000 -12.583338 -60.000122
v -60.000000 -12.583338 -60.500122
vn -1.0000 -0.0000 -0.0000
vn -0.0000 -0.0000 -1.0000
vn 1.0000 -0.0000 -0.0000
vn -0.0000 -0.0000 1.0000
vn -0.0000 -1.0000 -0.0000
vn -0.0000 1.0000 -0.0000
vt 7.750000 -4.750000
vt 7.750000 -7.875000
vt 7.812500 -7.875000
vt 7.812500 -4.750000
vt 22.750000 -7.875000
vt 22.750000 -4.750000
vt 5.000000 -4.750000
vt 5.000000 -7.875000
vt 11.001800 -7.875000
vt 11.001800 -4.750000
vt 5.062500 -7.875000
vt 5.062500 -4.750000
vt 7.750000 -6.250000
vt 7.750000 -7.750000
vt 9.125000 -7.750000
vt 9.125000 -6.250000
vt 7.812500 -7.750000
vt 7.812500 -6.250000
vt 7.750000 -7.625000
vt 7.812500 -7.625000
vt 0.250000 -2.000000
vt 0.250000 -2.062500
vt 15.250000 -2.062500
vt 15.250000 -2.000000
vt 0.250000 -17.000000
vt 15.250000 -17.000000
vt 3.250000 -3.750000
vt 3.250000 -6.875000
vt 10.875000 -6.875000
vt 10.875000 -3.750000
vt 3.312500 -6.875000
vt 3.312500 -3.750000
vt 7.000000 0.000000
vt 7.000000 -3.125000
vt 13.001800 -3.125000
vt 13.001800 0.000000
vt 7.062500 -3.125000
vt 7.062500 0.000000
vt 6.750000 -2.000000
vt 6.750000 -5.125000
vt 14.375000 -5.125000
vt 14.375000 -2.000000
vt 6.812500 -5.125000
vt 6.812500 -2.000000
vt 2.250000 -3.000000
vt 2.250000 -4.500000
vt 3.625000 -4.500000
vt 3.625000 -3.000000
vt 2.312500 -4.500000
vt 2.312500 -3.000000
vt 2.250000 -4.375000
vt 2.312500 -4.375000
vt 5.250000 -3.750000
vt 5.250000 -6.875000
vt 5.312500 -6.875000
vt 5.312500 -3.750000
vt 20.250000 -6.875000
vt 20.250000 -3.750000
s 1
usemtl Material.001
f 6/1/1 8/2/1 7/3/1 5/4/1
f 10/1/2 12/2/2 11/5/2 9/6/2
f 14/7/3 16/8/3 15/9/3 13/10/3
f 18/7/4 20/8/4 19/11/4 17/12/4
f 22/7/1 24/8/1 23/9/1 21/10/1
f 26/7/2 28/8/2 27/11/2 25/12/2
f 30/13/3 32/14/3 31/15/3 29/16/3
f 34/13/4 36/14/4 35/17/4 33/18/4
f 38/13/1 40/14/1 39/15/1 37/16/1
f 42/13/5 44/19/5 43/20/5 41/18/5
f 46/13/2 48/14/2 47/17/2 45/18/2
f 50/21/3 52/22/3 51/23/3 49/24/3
f 58/21/4 60/22/4 59/23/4 57/24/4
f 62/21/1 64/22/1 63/23/1 61/24/1
f 66/21/2 68/22/2 67/23/2 65/24/2
f 70/27/3 72/28/3 71/29/3 69/30/3
f 74/27/4 76/28/4 75/31/4 73/32/4
f 78/27/1 80/28/1 79/29/1 77/30/1
f 82/27/2 84/28/2 83/31/2 81/32/2
f 86/33/1 88/34/1 87/35/1 85/36/1
f 90/33/2 92/34/2 91/37/2 89/38/2
f 94/33/3 96/34/3 95/35/3 93/36/3
f 98/33/4 100/34/4 99/37/4 97/38/4
f 102/39/1 104/40/1 103/41/1 101/42/1
f 106/39/2 108/40/2 107/43/2 105/44/2
f 110/39/3 112/40/3 111/41/3 109/42/3
f 114/39/4 116/40/4 115/43/4 113/44/4
f 118/45/1 120/46/1 119/47/1 117/48/1
f 122/45/2 124/46/2 123/49/2 121/50/2
f 126/45/3 128/46/3 127/47/3 125/48/3
f 130/45/5 132/51/5 131/52/5 129/50/5
f 134/45/4 136/46/4 135/49/4 133/50/4
f 138/53/3 140/54/3 139/55/3 137/56/3
f 142/53/4 144/54/4 143/57/4 141/58/4
f 146/53/1 148/54/1 147/55/1 145/56/1
f 2/1/3 4/2/3 3/3/3 1/4/3
usemtl Material.002
f 54/21/6 56/25/6 55/26/6 53/24/6
