# Blender 4.3.0
# www.blender.org
mtllib bottle.mtl
o Cylinder
v 0.000000 -1.000000 -1.000000
v 0.000000 1.844835 -1.000000
v 0.951057 -1.000000 -0.309017
v 0.951057 1.844835 -0.309017
v 0.587785 -1.000000 0.809017
v 0.587785 1.844835 0.809017
v -0.587785 -1.000000 0.809017
v -0.587785 1.844835 0.809017
v -0.951057 -1.000000 -0.309017
v -0.951057 1.844835 -0.309017
v -0.000000 -1.199875 -0.851797
v 0.810107 -1.199875 -0.263220
v 0.500674 -1.199875 0.689118
v -0.500674 -1.199875 0.689118
v -0.810107 -1.199875 -0.263220
v 0.643616 2.249979 -0.209124
v -0.000000 2.249979 -0.676738
v 0.397777 2.249979 0.547493
v -0.397777 2.249979 0.547493
v -0.643616 2.249979 -0.209124
v 0.381640 4.181445 -0.124002
v -0.000000 4.181445 -0.401280
v 0.235866 4.181445 0.324642
v -0.235867 4.181445 0.324642
v -0.381640 4.181445 -0.124002
v 0.451436 4.270255 -0.146680
v -0.000000 4.270255 -0.474668
v 0.279003 4.270255 0.384014
v -0.279003 4.270255 0.384014
v -0.451436 4.270255 -0.146680
v 0.328079 4.393690 -0.106599
v -0.000000 4.393690 -0.344962
v 0.202764 4.393690 0.279080
v -0.202764 4.393690 0.279080
v -0.328079 4.393690 -0.106599
vn 0.5878 -0.0000 -0.8090
vn 0.9511 -0.0000 0.3090
vn -0.0000 -0.0000 1.0000
vn -0.7990 0.5423 0.2596
vn -0.9511 -0.0000 0.3090
vn -0.5878 -0.0000 -0.8090
vn -0.5041 -0.5144 -0.6938
vn -0.0000 -1.0000 -0.0000
vn 0.5041 -0.5144 -0.6938
vn -0.0000 -0.5144 0.8575
vn -0.8156 -0.5144 0.2650
vn 0.8156 -0.5144 0.2650
vn -0.5839 0.1146 -0.8037
vn 0.7990 0.5423 0.2596
vn -0.4938 0.5423 -0.6797
vn 0.4938 0.5423 -0.6797
vn -0.0000 0.5423 0.8402
vn 0.4886 -0.5558 -0.6726
vn -0.0000 0.1146 0.9934
vn 0.5839 0.1146 -0.8037
vn -0.9448 0.1146 0.3070
vn 0.9448 0.1146 0.3070
vn 0.7246 0.6477 0.2354
vn -0.7906 -0.5558 0.2569
vn 0.7906 -0.5558 0.2569
vn -0.4886 -0.5558 -0.6726
vn -0.0000 -0.5558 0.8313
vn -0.0000 1.0000 -0.0000
vn -0.4478 0.6477 -0.6164
vn -0.0000 0.6477 0.7619
vn 0.4478 0.6477 -0.6164
vn -0.7246 0.6477 0.2354
vt 1.000000 0.500000
vt 1.000000 1.000000
vt 0.800000 1.000000
vt 0.800000 0.500000
vt 0.600000 1.000000
vt 0.600000 0.500000
vt 0.400000 1.000000
vt 0.400000 0.500000
vt 0.200000 1.000000
vt 0.200000 0.500000
vt 0.000000 1.000000
vt 0.000000 0.500000
vt 0.522121 0.899252
vt 0.750375 0.733416
vt 0.663190 0.465088
vt 0.381053 0.465088
vt 0.293868 0.733416
vt 0.904955 0.081307
vt 0.973798 0.293184
vt 0.924548 0.277182
vt 0.874517 0.123201
vt 0.793564 0.372347
vt 0.662580 0.277182
vt 0.712612 0.123201
vt 0.793564 0.424132
vt 0.613331 0.293184
vt 0.682174 0.081307
s 0
usemtl Material.001
f 1/1/1 2/2/1 4/3/1 3/4/1
f 3/4/2 4/3/2 6/5/2 5/6/2
f 5/6/3 6/5/3 8/7/3 7/8/3
f 10/9/4 8/7/4 19/7/4 20/9/4
f 7/8/5 8/7/5 10/9/5 9/10/5
f 9/10/6 10/9/6 2/11/6 1/12/6
f 9/10/7 1/12/7 11/12/7 15/10/7
f 11/13/8 12/14/8 13/15/8 14/16/8 15/17/8
f 1/1/9 3/4/9 12/4/9 11/1/9
f 5/6/10 7/8/10 14/8/10 13/6/10
f 7/8/11 9/10/11 15/10/11 14/8/11
f 3/4/12 5/6/12 13/6/12 12/4/12
f 17/11/13 20/9/13 25/9/13 22/11/13
f 6/5/14 4/3/14 16/3/14 18/5/14
f 2/11/15 10/9/15 20/9/15 17/11/15
f 4/3/16 2/2/16 17/2/16 16/3/16
f 8/7/17 6/5/17 18/5/17 19/7/17
f 21/3/18 22/2/18 27/2/18 26/3/18
f 19/7/19 18/5/19 23/5/19 24/7/19
f 16/3/20 17/2/20 22/2/20 21/3/20
f 20/9/21 19/7/21 24/7/21 25/9/21
f 18/5/22 16/3/22 21/3/22 23/5/22
f 28/18/23 26/19/23 31/20/23 33/21/23
f 25/9/24 24/7/24 29/7/24 30/9/24
f 23/5/25 21/3/25 26/3/25 28/5/25
f 22/11/26 25/9/26 30/9/26 27/11/26
f 24/7/27 23/5/27 28/5/27 29/7/27
f 31/20/28 32/22/28 35/23/28 34/24/28 33/21/28
f 27/25/29 30/26/29 35/23/29 32/22/29
f 29/27/30 28/18/30 33/21/30 34/24/30
f 26/19/31 27/25/31 32/22/31 31/20/31
f 30/26/32 29/27/32 34/24/32 35/23/32
