# Blender 4.3.0
# www.blender.org
mtllib box.mtl
o Cube
v -1.000000 -1.000000 1.000000
v -1.000000 1.000000 1.000000
v -1.000000 -1.000000 -1.000000
v -1.000000 1.000000 -1.000000
v 1.000000 -0.941222 0.941222
v 1.000000 0.941222 0.941222
v 1.000000 -0.941222 -0.941222
v 1.000000 0.941222 -0.941222
v 1.000000 1.000000 -1.000000
v 1.000000 -1.000000 -1.000000
v 1.000000 -1.000000 1.000000
v 1.000000 1.000000 1.000000
v -0.856457 0.941222 -0.941222
v -0.856457 -0.941222 -0.941222
v -0.856457 -0.941222 0.941222
v -0.856457 0.941222 0.941222
v -1.000000 0.000000 0.925498
v -1.000000 0.925600 0.000000
v -1.000000 0.000000 -0.925498
v 0.000000 -1.000000 -1.000000
v 0.000000 0.957088 -1.000000
v 0.983566 0.068416 -0.927841
v 1.000000 0.925600 0.000000
v 1.041509 -0.145092 0.882085
v 0.000000 -1.000000 1.000000
v 0.000000 0.957088 1.000000
v 0.983566 0.068416 -0.873442
v 1.000000 0.866822 0.000000
v 1.041509 -0.145092 0.827686
v -0.856457 0.000000 -0.871100
v -0.856457 0.866822 0.000000
v -0.856457 0.000000 0.871100
v 0.071771 -0.941222 0.941222
v 0.071771 0.898310 0.941222
v 0.071771 -0.941222 -0.941222
v 0.071771 0.898310 -0.941222
v 0.052150 0.033590 -0.911515
v 0.071771 0.823282 0.000000
v 0.000000 0.882059 0.000000
v -0.055190 -0.042640 0.965745
v 0.016581 -0.042640 0.911347
v -0.019621 0.033590 -0.965914
v 1.672413 0.065454 -1.346844
v 1.655161 -1.002962 -1.418811
v 1.396431 -0.148055 1.611881
v 1.295471 -1.002962 1.685598
v 1.696525 0.065454 -1.298080
v 1.681214 -0.944185 -1.366123
v 1.427220 -0.148055 1.567035
v 1.328739 -0.944185 1.637141
v 1.655161 0.997038 -1.418811
v 1.681214 0.938260 -1.366123
v 1.295471 0.997038 1.685598
v 1.328739 0.938260 1.637141
vn -1.0000 -0.0000 -0.0000
vn 0.0212 -0.0576 -0.9981
vn 0.0210 -0.0536 -0.9983
vn -0.0230 -0.0537 0.9983
vn -0.0000 -1.0000 -0.0000
vn 0.0431 0.9963 -0.0744
vn 0.8875 -0.1290 -0.4423
vn 1.0000 -0.0000 -0.0000
vn 0.7683 -0.5362 -0.3495
vn -0.0000 1.0000 -0.0000
vn -0.0464 -0.9958 0.0790
vn 0.0222 0.0549 0.9982
vn 0.0229 -0.0518 0.9984
vn -0.0195 -0.0494 0.9986
vn -0.0228 0.0565 0.9981
vn -0.0464 -0.9958 -0.0790
vn 0.0464 -0.9958 -0.0790
vn 0.0464 -0.9958 0.0790
vn -0.9050 -0.0911 0.4155
vn 0.5194 0.0660 0.8520
vn -0.0431 0.9963 -0.0744
vn -0.0431 0.9963 0.0744
vn 0.0431 0.9963 0.0744
vn -0.0195 0.0549 0.9983
vn 0.0438 0.0839 0.9955
vn 0.0378 -0.0710 0.9968
vn 0.0248 0.0523 -0.9983
vn -0.0405 0.0708 -0.9967
vn -0.0471 -0.0846 -0.9953
vn 0.0181 0.0508 -0.9985
vn -0.0213 0.0531 -0.9984
vn -0.0206 -0.0561 -0.9982
vn 0.8925 0.0164 -0.4508
vn 0.8352 0.0393 0.5486
vn 0.8388 -0.0541 0.5418
vn 0.8918 -0.0190 -0.4520
vn 0.5193 -0.0571 0.8527
vn 0.7713 0.5341 -0.3462
vn -0.9017 0.1216 0.4149
vn 0.3952 0.6767 0.6212
vn -0.5281 -0.0657 -0.8467
vn 0.8913 0.0949 -0.4433
vn -0.5280 0.0574 -0.8473
vn 0.3905 -0.6775 0.6233
vt 0.710696 0.627196
vt 0.888279 0.627196
vt 0.888279 0.804779
vt 0.166930 0.755869
vt 0.336017 0.755869
vt 0.336017 0.994569
vt 0.166930 0.994569
vt 0.749174 0.286293
vt 0.530664 0.304163
vt 0.530664 0.001982
vt 0.759579 0.002216
vt 0.163737 0.757686
vt -0.001936 0.757686
vt -0.001936 0.517187
vt 0.163737 0.517187
vt 0.662879 0.579208
vt 0.866161 0.579208
vt 0.866161 0.985772
vt 0.662879 0.985772
vt 0.164733 0.758385
vt 0.164733 0.519839
vt 0.325877 0.519839
vt 0.325877 0.758385
vt 0.913720 0.969592
vt 0.757112 0.995229
vt 0.756969 0.747861
vt 0.913735 0.741292
vt 0.382347 0.507347
vt 0.382347 0.742653
vt 0.375000 0.750000
vt 0.375000 0.500000
vt 0.617653 0.625000
vt 0.617653 0.507347
vt 0.625000 0.500000
vt 0.625000 0.625000
vt 0.487237 0.236096
vt 0.487237 0.463025
vt 0.346766 0.463026
vt 0.990578 0.310591
vt 0.525352 0.310591
vt 0.525352 0.006047
vt 0.990578 0.006047
vt 0.757728 0.308762
vt 0.524373 0.308762
vt 0.524373 0.005364
vt 0.757728 0.005364
vt 0.752530 0.302588
vt 0.541462 0.309002
vt 0.530989 0.005896
vt 0.760753 0.005880
vt 0.990430 0.309003
vt 0.990430 0.005896
vt 0.990430 0.612109
vt 0.744054 0.606727
vt 0.530989 0.612109
vt 0.991082 0.308762
vt 0.991082 0.005364
vt 0.991082 0.612160
vt 0.757728 0.612159
vt 0.524373 0.612159
vt 0.990578 0.615136
vt 0.525352 0.615136
vt 0.206296 0.236096
vt 0.206296 0.463026
vt 0.487237 0.009166
vt 0.206296 0.009166
vt 0.880402 0.718880
vt 0.655789 0.746593
vt 0.654759 0.505886
vt 0.879304 0.497454
vt 0.617653 0.742653
vt 0.625000 0.750000
vt 0.542696 0.505403
vt 0.714163 0.489713
vt 0.715421 0.735895
vt 0.543917 0.743584
vt 0.164733 0.996930
vt 0.325877 0.996930
vt 0.003589 0.996930
vt 0.003589 0.758385
vt 0.003589 0.519839
vt 0.459598 0.579208
vt 0.459598 0.985772
vt 0.329410 0.757686
vt 0.329410 0.517187
vt 0.329410 0.998185
vt 0.163737 0.998185
vt -0.001936 0.998185
vt 0.977932 0.304152
vt 0.988366 0.001971
vt 0.988366 0.606333
vt 0.724341 0.620239
vt 0.530664 0.606344
vt -0.002158 0.755869
vt -0.002158 0.994569
vt -0.002158 0.517169
vt 0.166930 0.517169
vt 0.336017 0.517169
vt 0.710696 0.982361
vt 0.888279 0.982361
vt 0.533114 0.627196
vt 0.533114 0.982361
vt 0.500000 0.507347
vt 0.500000 0.500000
vt 0.500000 0.742653
vt 0.500000 0.750000
vt 0.912504 0.503112
vt 0.913725 0.741292
vt 0.487541 0.720748
vt 0.486444 0.499321
vt 0.697402 0.746395
vt 0.880489 0.760987
vt 0.880395 0.991673
vt 0.697312 0.985592
vt 0.543963 0.971884
vt 0.543978 0.743583
vt 0.487586 0.762855
vt 0.487492 0.993541
s 0
usemtl Material.001
f 17/1/1 2/2/1 18/3/1
f 42/4/2 21/5/2 9/6/2 22/7/2
f 41/8/3 33/9/3 15/10/3 32/11/3
f 40/12/4 26/13/4 2/14/4 17/15/4
f 20/16/5 10/17/5 11/18/5 25/19/5
f 39/20/6 18/21/6 2/22/6 26/23/6
f 5/24/7 29/25/7 49/26/7 50/27/7
f 7/28/8 5/29/8 11/30/8 10/31/8
f 28/32/8 8/33/8 9/34/8 23/35/8
f 11/30/9 5/29/9 50/29/9 46/30/9
f 30/36/8 13/37/8 31/38/8
f 33/39/10 35/40/10 14/41/10 15/42/10
f 38/43/11 34/44/11 16/45/11 31/46/11
f 37/47/12 36/48/12 13/49/12 30/50/12
f 35/51/13 37/47/13 30/50/13 14/52/13
f 7/53/14 27/54/14 37/47/14 35/51/14
f 27/54/15 8/55/15 36/48/15 37/47/15
f 36/56/16 38/43/16 31/46/16 13/57/16
f 8/58/17 28/59/17 38/43/17 36/56/17
f 28/59/18 6/60/18 34/44/18 38/43/18
f 5/61/10 7/62/10 35/40/10 33/39/10
f 30/36/8 31/38/8 32/63/8
f 32/63/8 31/38/8 16/64/8
f 14/65/8 30/36/8 32/63/8 15/66/8
f 12/67/19 24/68/19 45/69/19 53/70/19
f 6/71/8 28/32/8 23/35/8 12/72/8
f 8/73/20 27/74/20 47/75/20 52/76/20
f 23/77/21 39/20/21 26/23/21 12/78/21
f 9/79/22 21/80/22 39/20/22 23/77/22
f 21/80/23 4/81/23 18/21/23 39/20/23
f 3/82/5 20/16/5 25/19/5 1/83/5
f 25/84/24 40/12/24 17/15/24 1/85/24
f 11/86/25 24/87/25 40/12/25 25/84/25
f 24/87/26 12/88/26 26/13/26 40/12/26
f 34/89/27 41/8/27 32/11/27 16/90/27
f 6/91/28 29/92/28 41/8/28 34/89/28
f 29/92/29 5/93/29 33/9/29 41/8/29
f 20/94/30 42/4/30 22/7/30 10/95/30
f 3/96/31 19/97/31 42/4/31 20/94/31
f 19/97/32 4/98/32 21/5/32 42/4/32
f 17/1/1 18/3/1 19/99/1
f 19/99/1 18/3/1 4/100/1
f 1/101/1 17/1/1 19/99/1 3/102/1
f 47/103/33 48/28/33 44/31/33 43/104/33
f 49/105/34 54/71/34 53/72/34 45/106/34
f 50/29/35 49/105/35 45/106/35 46/30/35
f 52/33/36 47/103/36 43/104/36 51/34/36
f 27/74/37 7/107/37 48/108/37 47/75/37
f 6/71/38 12/72/38 53/72/38 54/71/38
f 24/68/39 11/109/39 46/110/39 45/69/39
f 9/34/40 8/33/40 52/33/40 51/34/40
f 22/111/41 9/112/41 51/113/41 43/114/41
f 29/25/42 6/115/42 54/116/42 49/26/42
f 10/117/43 22/111/43 43/114/43 44/118/43
f 7/28/44 10/31/44 44/31/44 48/28/44
