# Blender 4.3.0
# www.blender.org
mtllib rat.mtl
o Cylinder
v -1.000000 0.668297 -0.000000
v 1.000000 0.668297 -0.000000
v -1.000000 0.309017 -0.951056
v 1.000000 0.309017 -0.951056
v -1.000000 -0.809017 -1.016713
v 1.000000 -0.809017 -1.016713
v -1.000000 -0.809017 1.016713
v 1.000000 -0.809017 1.016713
v -1.000000 0.309017 0.951056
v 1.000000 0.309017 0.951056
v -2.064103 0.091810 -0.000000
v -2.064103 -0.129368 -0.585483
v -2.064103 -0.817645 -0.625903
v -2.064103 -0.817645 0.625903
v -2.064103 -0.129368 0.585483
v 1.934290 0.044246 -0.752909
v 1.801831 0.295945 -0.000000
v 2.346486 -0.739012 -0.804886
v 2.346486 -0.739012 0.804886
v 1.934290 0.044246 0.752909
v -2.890203 -0.449723 0.177302
v -2.011013 -0.449723 0.177302
v -2.890203 -0.262729 -0.069341
v -2.011013 -0.262729 -0.069341
v -2.890203 -0.569825 -0.107961
v -2.011013 -0.569825 -0.107961
v -3.929184 -0.449723 0.590892
v -3.929184 -0.262729 0.344250
v -3.929184 -0.569825 0.305630
v -5.152181 -0.440058 0.065557
v -5.152181 -0.334117 -0.074178
v -5.152181 -0.508102 -0.096059
vn -0.0000 0.9355 -0.3534
vn -0.0000 0.0586 -0.9983
vn -0.0000 -1.0000 -0.0000
vn 0.1843 0.1005 0.9777
vn -0.0000 0.0586 0.9983
vn -0.0000 0.9355 0.3534
vn -0.3446 0.0550 -0.9371
vn -1.0000 -0.0000 -0.0000
vn -0.4521 0.8344 0.3152
vn -0.4521 0.8344 -0.3152
vn 0.0081 -1.0000 -0.0000
vn -0.3446 0.0550 0.9371
vn 0.8849 0.4657 -0.0000
vn 0.1843 0.1005 -0.9777
vn 0.3587 0.8872 0.2902
vn 0.3587 0.8872 -0.2902
vn 0.0519 -0.9987 -0.0000
vn -0.0000 0.7969 0.6042
vn -0.0000 0.1248 -0.9922
vn -0.0000 -0.9216 0.3880
vn 0.1527 -0.9108 0.3835
vn -0.1714 -0.9080 0.3823
vn -0.3673 0.1161 -0.9228
vn 0.2338 0.7748 0.5874
vn 0.3152 0.1184 -0.9416
vn -0.2455 0.7725 0.5857
vt 0.387342 0.846169
vt 0.749538 0.247046
vt 0.977163 0.393587
vt 0.614967 0.992711
vt 0.105141 0.594150
vt 0.428065 0.126566
vt 0.690123 0.307862
vt 0.367198 0.775446
vt 0.144642 0.618024
vt 0.422511 0.231561
vt 0.815512 0.514130
vt 0.537644 0.900593
vt 0.952472 0.488734
vt 0.690122 0.307862
vt 0.925686 0.009509
vt 1.042974 0.232738
vt 0.367198 0.775445
vt 0.629547 0.956318
vt 0.082568 0.662125
vt 0.444763 0.063001
vt 0.187234 1.025992
vt 0.025908 0.914384
vt 0.486425 0.727830
vt 0.399277 0.958522
vt 0.128082 0.974448
vt 0.128082 0.481213
vt 0.399277 0.497139
vt 0.205033 0.209468
vt 0.509808 0.393512
vt 0.255205 0.682189
vt 0.067581 0.568888
vt 0.272868 1.225059
vt 0.132740 1.134846
vt 0.314247 1.051937
vt 0.072310 0.877984
vt 0.358125 1.143821
vt 0.196619 1.032474
vt 0.358561 0.255587
vt 0.156019 0.308872
vt -0.032054 0.251760
vt -0.006085 -0.002651
vt 0.301852 -0.000338
vt 0.635422 -0.048728
vt 0.885720 -0.018092
vt 0.640995 -0.196258
vt 0.854769 -0.012587
vt 1.062471 0.065452
vt 0.650718 0.000542
vt 0.961839 0.224239
vt 0.952960 0.763230
vt 0.952960 0.984801
vt 0.963093 0.984801
vt 0.963093 0.763230
vt 0.973226 0.984801
vt 0.973226 0.763230
vt 0.983359 0.984801
vt 0.983359 0.763230
vt 0.953868 0.955255
vt 0.953101 0.935890
vt 0.954635 0.935890
s 0
usemtl Material.001
f 1/1/1 2/2/1 4/3/1 3/4/1
f 3/5/2 4/6/2 6/7/2 5/8/2
f 5/9/3 6/10/3 8/11/3 7/12/3
f 10/13/4 8/14/4 19/15/4 20/16/4
f 7/17/5 8/14/5 10/13/5 9/18/5
f 9/19/6 10/20/6 2/2/6 1/1/6
f 3/5/7 5/8/7 13/21/7 12/22/7
f 11/23/8 12/24/8 13/25/8 14/26/8 15/27/8
f 9/28/9 1/29/9 11/30/9 15/31/9
f 1/1/10 3/4/10 12/32/10 11/33/10
f 5/9/11 7/12/11 14/34/11 13/35/11
f 7/17/12 9/18/12 15/36/12 14/37/12
f 16/38/13 17/39/13 20/40/13 19/41/13 18/42/13
f 6/7/14 4/6/14 16/43/14 18/44/14
f 2/2/15 10/20/15 20/45/15 17/46/15
f 4/3/16 2/2/16 17/46/16 16/47/16
f 8/11/17 6/10/17 18/48/17 19/49/17
f 21/50/18 22/51/18 24/52/18 23/53/18
f 23/53/19 24/52/19 26/54/19 25/55/19
f 25/55/20 26/54/20 22/56/20 21/57/20
f 25/55/21 21/57/21 27/57/21 29/55/21
f 29/55/22 27/57/22 30/57/22 32/55/22
f 23/53/23 25/55/23 29/55/23 28/53/23
f 21/50/24 23/53/24 28/53/24 27/50/24
f 30/58/8 31/59/8 32/60/8
f 28/53/25 29/55/25 32/55/25 31/53/25
f 27/50/26 28/53/26 31/53/26 30/50/26
