# Blender 4.3.0
# www.blender.org
mtllib right_l_room.mtl
o right_l_room_rough
v -33.808975 9.662333 -51.788422
v -33.808975 9.662334 -33.788422
v -33.808975 -10.337667 -51.788422
v -33.808975 -10.337666 -33.788422
v -34.308975 9.662334 -33.788422
v -33.808975 9.662334 -33.788422
v -34.308975 9.662333 -51.788422
v -33.808975 9.662333 -51.788422
v -33.808975 9.662334 -33.788422
v -34.308975 9.662334 -33.788422
v -33.808975 -10.337666 -33.788422
v -34.308975 -10.337666 -33.788422
v -34.308975 9.662334 -33.788422
v -34.308975 9.662333 -51.788422
v -34.308975 -10.337666 -33.788422
v -34.308975 -10.337667 -51.788422
v 37.191025 9.662333 -51.288422
v -34.308975 9.662333 -51.288422
v 37.191025 -10.337663 -51.288422
v -34.308975 -10.337663 -51.288422
v -33.808975 9.662334 -33.788422
v -33.808975 9.662335 -22.788422
v -33.808975 2.662335 -33.788422
v -33.808975 2.662336 -22.788422
v -34.308975 9.662335 -22.788422
v -33.808975 9.662335 -22.788422
v -34.308975 9.662334 -33.788422
v -33.808975 9.662334 -33.788422
v -33.808975 9.662335 -22.788422
v -34.308975 9.662335 -22.788422
v -33.808975 2.662336 -22.788422
v -34.308975 2.662336 -22.788422
v -34.308975 9.662335 -22.788422
v -34.308975 9.662334 -33.788422
v -34.308975 2.662336 -22.788422
v -34.308975 2.662335 -33.788422
v -34.308975 2.662335 -33.788422
v -33.808975 2.662335 -33.788422
v -34.308975 2.662336 -22.788422
v -33.808975 2.662336 -22.788422
v -34.308975 9.662334 -33.788422
v -33.808975 9.662334 -33.788422
v -34.308975 2.662335 -33.788422
v -33.808975 2.662335 -33.788422
v -35.308975 11.162337 3.711577
v -35.308975 11.162337 3.711577
v -30.808975 9.662337 3.711578
v -35.308975 11.162333 -51.788422
v -35.308975 11.162333 -51.788422
v -35.308975 9.662333 -51.788422
v -30.808975 9.662333 -51.788422
v -30.808975 9.662337 3.711578
v -35.308975 9.662333 -51.788422
v -35.308975 9.662337 3.711578
v -35.308975 11.162333 -51.788422
v -35.308975 11.162337 3.711577
v -30.808975 9.662333 -51.788422
v -30.808975 9.662337 3.711578
v 37.191025 -9.837663 -51.288422
v 37.191025 -9.837659 3.711579
v 37.191025 -10.337663 -51.288422
v 37.191025 -10.337659 3.711579
v -34.308975 -9.837659 3.711579
v 37.191025 -9.837659 3.711579
v -34.308975 -9.837663 -51.288422
v 37.191025 -9.837663 -51.288422
v -34.308975 -9.837659 3.711579
v -34.308975 -9.837663 -51.288422
v -34.308975 -10.337659 3.711579
v -34.308975 -10.337663 -51.288422
v -34.308975 -9.837663 -51.288422
v 37.191025 -9.837663 -51.288422
v -34.308975 -10.337663 -51.288422
v 37.191025 -10.337663 -51.288422
v -33.808975 9.662335 -22.802429
v -33.808975 9.662337 4.711577
v -33.808975 -10.337665 -22.802429
v -33.808975 -10.337663 4.711579
v -34.308975 9.662337 4.711577
v -33.808975 9.662337 4.711577
v -34.308975 9.662335 -22.802429
v -33.808975 9.662335 -22.802429
v -33.808975 9.662337 4.711577
v -34.308975 9.662337 4.711577
v -33.808975 -10.337663 4.711579
v -34.308975 -10.337663 4.711579
v -34.308975 9.662337 4.711577
v -34.308975 9.662335 -22.802429
v -34.308975 -10.337663 4.711579
v -34.308975 -10.337665 -22.802429
v -34.308975 9.662335 -22.802429
v -33.808975 9.662335 -22.802429
v -34.308975 -10.337665 -22.802429
v -33.808975 -10.337665 -22.802429
v 37.191025 9.662340 42.211578
v 37.191025 9.662333 -51.288422
v 37.191025 -10.337656 42.211578
v 37.191025 -10.337663 -51.288422
v 8.691025 11.662337 3.211577
v 8.691025 11.662338 9.211577
v 8.691025 -10.337659 3.211579
v 8.691025 -10.337658 9.211579
v 8.691025 11.662338 9.211577
v 2.691025 11.662338 9.211577
v 8.691025 -10.337658 9.211579
v 2.691025 -10.337658 9.211579
v 2.691025 11.662338 9.211577
v 2.691025 11.662337 3.211577
v 2.691025 -10.337658 9.211579
v 2.691025 -10.337659 3.211579
v 2.691025 11.662337 3.211577
v 8.691025 11.662337 3.211577
v 2.691025 -10.337659 3.211579
v 8.691025 -10.337659 3.211579
v 37.191025 -9.837659 3.711579
v 37.191025 -9.837656 42.711578
v 37.191025 -10.337659 3.711579
v 37.191025 -10.337656 42.711578
v 8.191025 -9.837656 42.711578
v 37.191025 -9.837656 42.711578
v 8.191025 -9.837659 3.711579
v 37.191025 -9.837659 3.711579
v 37.191025 -9.837656 42.711578
v 8.191025 -9.837656 42.711578
v 37.191025 -10.337656 42.711578
v 8.191025 -10.337656 42.711578
v 8.191025 -9.837656 42.711578
v 8.191025 -9.837659 3.711579
v 8.191025 -10.337656 42.711578
v 8.191025 -10.337659 3.711579
v 37.191025 9.662340 42.711578
v 31.691025 9.662340 42.711578
v 37.191025 -10.337660 42.711578
v 31.691025 -10.337660 42.711578
v 31.691025 9.662340 42.711578
v 31.691025 9.662340 42.211578
v 31.691025 -10.337660 42.711578
v 31.691025 -10.337660 42.211578
v 31.691025 9.662340 42.211578
v 37.191025 9.662340 42.211578
v 31.691025 -10.337660 42.211578
v 37.191025 -10.337660 42.211578
v 8.191025 11.662337 3.711577
v 8.191025 11.662340 42.711578
v 8.191025 -10.337659 3.711579
v 8.191025 -10.337656 42.711578
v -34.308975 11.662337 3.711577
v 8.191025 11.662337 3.711577
v -34.308975 -10.337659 3.711579
v 8.191025 -10.337659 3.711579
v 31.691025 9.662340 42.711578
v 20.691025 9.662340 42.711578
v 31.691025 2.662341 42.711578
v 20.691025 2.662341 42.711578
v 20.691025 9.662340 42.711578
v 20.691025 9.662340 42.211578
v 20.691025 2.662341 42.711578
v 20.691025 2.662340 42.211578
v 20.691025 9.662340 42.211578
v 31.691025 9.662340 42.211578
v 20.691025 2.662340 42.211578
v 31.691025 2.662340 42.211578
v 31.691025 2.662340 42.211578
v 31.691025 2.662341 42.711578
v 20.691025 2.662340 42.211578
v 20.691025 2.662341 42.711578
v 31.691025 9.662340 42.211578
v 31.691025 9.662340 42.711578
v 31.691025 2.662340 42.211578
v 31.691025 2.662341 42.711578
v 20.705025 9.662340 42.711578
v 7.691025 9.662340 42.711578
v 20.705025 -10.337660 42.711578
v 7.691025 -10.337660 42.711578
v 7.691025 9.662340 42.711578
v 7.691025 9.662340 42.211578
v 7.691025 -10.337660 42.711578
v 7.691025 -10.337660 42.211578
v 7.691025 9.662340 42.211578
v 20.705025 9.662340 42.211578
v 7.691025 -10.337660 42.211578
v 20.705025 -10.337660 42.211578
v 20.705025 9.662340 42.211578
v 20.705025 9.662340 42.711578
v 20.705025 -10.337660 42.211578
v 20.705025 -10.337660 42.711578
vn -0.0000 1.0000 -0.0000
vn -0.0000 -0.0000 1.0000
vn -1.0000 -0.0000 -0.0000
vn 1.0000 -0.0000 -0.0000
vn -0.0000 -1.0000 -0.0000
vn -0.0000 -0.0000 -1.0000
vn -0.9487 0.3163 -0.0000
vn 0.9487 -0.3161 -0.0000
vn 0.0001 -1.0000 -0.0000
vn 0.3162 0.9487 -0.0000
vt 6.000000 -5.000000
vt 6.000000 -7.250000
vt 6.062500 -7.250000
vt 6.062500 -5.000000
vt 6.000000 -7.500000
vt 6.062500 -7.500000
vt 8.250000 -7.500000
vt 8.250000 -5.000000
vt 1.000000 -0.500000
vt 1.000000 -3.000000
vt 9.937500 -3.000000
vt 9.937500 -0.500000
vt 5.750000 -6.500000
vt 5.750000 -7.375000
vt 7.125000 -7.375000
vt 7.125000 -6.500000
vt 5.750000 -7.875000
vt 5.812500 -7.875000
vt 5.812500 -6.500000
vt 5.812500 -7.375000
vt 4.250000 -6.000000
vt 4.812500 -6.187500
vt 0.579191 0.433068
vt 0.579191 0.434759
vt 0.558333 0.434759
vt 0.558333 0.433068
vt 4.812500 -6.000000
vt 0.579191 0.434851
vt 0.558333 0.434851
vt 4.000000 -4.000000
vt 4.000000 -4.062500
vt 10.875000 -4.062500
vt 10.875000 -4.000000
vt 4.000000 -10.875000
vt 12.937500 -10.875000
vt 12.937500 -4.000000
vt 12.937500 -4.062500
vt 1.500000 -3.750000
vt 1.500000 -6.250000
vt 4.939250 -6.250000
vt 4.939250 -3.750000
vt 1.500000 -7.189250
vt 1.562500 -7.189250
vt 1.562500 -3.750000
vt 1.562500 -6.250000
vt 4.750000 -3.500000
vt 4.750000 -6.000000
vt 16.437500 -6.000000
vt 16.437500 -3.500000
vt 6.750000 -3.750000
vt 6.750000 -6.500000
vt 7.500000 -6.500000
vt 7.500000 -3.750000
vt 4.750000 -0.750000
vt 4.750000 -0.812500
vt 9.625000 -0.812500
vt 9.625000 -0.750000
vt 4.750000 -5.625000
vt 8.375000 -5.625000
vt 8.375000 -0.750000
vt 8.375000 -0.812500
vt 3.000000 -5.000000
vt 3.000000 -7.500000
vt 3.687500 -7.500000
vt 3.687500 -5.000000
vt 3.062500 -7.500000
vt 3.062500 -5.000000
vt 4.250000 -0.250000
vt 4.250000 -3.000000
vt 9.125000 -3.000000
vt 9.125000 -0.250000
vt 9.562500 -3.000000
vt 9.562500 -0.250000
vt 3.750000 -4.250000
vt 3.750000 -5.125000
vt 5.125000 -5.125000
vt 5.125000 -4.250000
vt 3.812500 -5.125000
vt 3.812500 -4.250000
vt 3.750000 -5.625000
vt 3.812500 -5.625000
vt 3.750000 -3.250000
vt 3.750000 -5.750000
vt 5.376750 -5.750000
vt 5.376750 -3.250000
vt 3.812500 -5.750000
vt 3.812500 -3.250000
s 1
usemtl Material.001
f 6/1/1 8/2/1 7/3/1 5/4/1
f 10/1/2 12/5/2 11/6/2 9/4/2
f 14/1/3 16/5/3 15/7/3 13/8/3
f 18/9/2 20/10/2 19/11/2 17/12/2
f 22/13/4 24/14/4 23/15/4 21/16/4
f 26/13/1 28/17/1 27/18/1 25/19/1
f 30/13/2 32/14/2 31/20/2 29/19/2
f 34/13/3 36/14/3 35/15/3 33/16/3
f 38/13/5 40/17/5 39/18/5 37/19/5
f 42/13/6 44/14/6 43/20/6 41/19/6
f 45/21/2 46/21/7 47/22/8
f 52/23/5 54/24/5 53/25/5 51/26/5
f 48/27/2 49/27/5 50/22/9
f 56/23/10 58/28/10 57/29/10 55/26/10
f 60/30/4 62/31/4 61/32/4 59/33/4
f 68/30/3 70/31/3 69/32/3 67/33/3
f 72/30/6 74/31/6 73/37/6 71/36/6
f 76/38/4 78/39/4 77/40/4 75/41/4
f 80/38/1 82/42/1 81/43/1 79/44/1
f 84/38/2 86/39/2 85/45/2 83/44/2
f 88/38/3 90/39/3 89/40/3 87/41/3
f 92/38/6 94/39/6 93/45/6 91/44/6
f 96/46/3 98/47/3 97/48/3 95/49/3
f 100/50/4 102/51/4 101/52/4 99/53/4
f 104/50/2 106/51/2 105/52/2 103/53/2
f 108/50/3 110/51/3 109/52/3 107/53/3
f 112/50/6 114/51/6 113/52/6 111/53/6
f 116/54/4 118/55/4 117/56/4 115/57/4
f 124/54/2 126/55/2 125/61/2 123/60/2
f 128/54/3 130/55/3 129/56/3 127/57/3
f 132/62/2 134/63/2 133/64/2 131/65/2
f 136/62/3 138/63/3 137/66/3 135/67/3
f 140/62/6 142/63/6 141/64/6 139/65/6
f 144/68/4 146/69/4 145/70/4 143/71/4
f 148/68/6 150/69/6 149/72/6 147/73/6
f 152/74/2 154/75/2 153/76/2 151/77/2
f 156/74/3 158/75/3 157/78/3 155/79/3
f 160/74/6 162/75/6 161/76/6 159/77/6
f 164/74/5 166/80/5 165/81/5 163/79/5
f 168/74/4 170/75/4 169/78/4 167/79/4
f 172/82/2 174/83/2 173/84/2 171/85/2
f 176/82/3 178/83/3 177/86/3 175/87/3
f 180/82/6 182/83/6 181/84/6 179/85/6
f 184/82/4 186/83/4 185/86/4 183/87/4
f 2/1/4 4/5/4 3/7/4 1/8/4
usemtl Material.002
f 64/30/1 66/34/1 65/35/1 63/36/1
f 120/54/1 122/58/1 121/59/1 119/60/1
