# Blender 4.3.0
# www.blender.org
mtllib severed_arm.mtl
o Cube
v 4.846120 -1.788119 -0.526123
v 5.300498 -2.136527 -0.616223
v 5.435774 -2.520734 -0.537306
v 4.849180 -1.734694 0.264168
v 5.300430 -2.009437 0.413502
v 5.437190 -2.400648 0.345184
v 5.604667 -2.562386 -0.094073
v 4.865289 -1.691315 -0.145432
v 4.207722 -1.696617 -0.144001
v 3.581732 -1.721284 -0.143076
v 2.746115 -1.622915 -0.147966
v 1.913542 -1.616410 -0.150516
v 1.652683 -1.654741 -0.124995
v 1.899599 -2.752126 -0.065569
v 2.202017 -2.796610 -0.092878
v 3.160234 -2.768236 -0.091820
v 4.121866 -2.545792 -0.094053
v 4.842468 -2.555166 -0.093308
v 4.697590 -2.515568 -0.532537
v 3.998880 -2.512190 -0.521211
v 3.065963 -2.713492 -0.577492
v 2.136916 -2.739208 -0.591665
v 1.841235 -2.706683 -0.585999
v 1.841235 -2.555209 0.447578
v 2.136916 -2.577832 0.400255
v 3.065963 -2.556757 0.388290
v 3.998881 -2.397224 0.328117
v 4.697649 -2.397563 0.340868
v 4.581051 -2.135491 -0.609542
v 3.899347 -2.141033 -0.589086
v 2.989626 -2.209051 -0.665246
v 2.083073 -2.220435 -0.681164
v 1.797777 -2.215558 -0.660925
v 1.643695 -1.774009 -0.570605
v 1.906924 -1.748604 -0.579224
v 2.735415 -1.750869 -0.565596
v 3.567734 -1.808376 -0.508704
v 4.190801 -1.791373 -0.521304
v 4.190920 -1.738121 0.260555
v 3.567734 -1.758175 0.248993
v 2.735415 -1.679433 0.299796
v 1.906924 -1.674985 0.309197
v 1.643695 -1.705919 0.351677
v 1.797777 -2.054600 0.510726
v 2.083073 -2.048706 0.475308
v 2.989626 -2.042250 0.461869
v 3.899346 -2.019860 0.385190
v 4.581032 -2.010182 0.405559
v 5.956184 -1.809453 -0.496809
v 5.956184 -2.133979 -0.579685
v 5.956184 -2.491834 -0.506942
v 5.956184 -1.758238 0.239203
v 5.956184 -2.016923 0.370989
v 5.956184 -2.381948 0.314857
v 5.956184 -2.526492 -0.092666
v 5.956184 -1.721083 -0.140016
v 6.205242 -2.588658 0.498380
v 6.205242 -1.697181 0.498380
v 6.205242 -2.588658 -0.601223
v 6.205242 -1.716944 -0.683019
v 5.639019 -2.509126 0.367872
v 5.639019 -1.757324 0.367872
v 5.639019 -2.509126 -0.541974
v 5.639019 -1.757324 -0.541974
v 6.386947 -2.435768 -0.474500
v 6.386947 -2.435768 0.431384
v 6.404696 -1.852218 0.431384
v 6.404696 -1.882028 -0.474500
v 5.588378 -2.133225 -0.636848
v 5.585596 -2.603810 -0.087051
v 5.586433 -1.661833 -0.087051
v 5.590149 -2.133225 0.464335
v 5.489150 -2.132303 -0.086033
vn -0.0075 0.9696 -0.2447
vn -0.0068 0.9946 0.1034
vn -0.0085 -0.9960 -0.0887
vn -0.0073 -0.9400 0.3411
vn -0.0086 -0.2026 -0.9792
vn -0.0086 -0.1711 0.9852
vn -0.0085 0.2396 -0.9708
vn -0.0088 0.4634 0.8861
vn 0.0250 0.9945 0.1020
vn 0.0264 0.9694 -0.2441
vn 0.0702 -0.9335 0.3516
vn 0.0626 -0.1510 0.9865
vn 0.0775 -0.9916 -0.1035
vn 0.0419 0.4934 0.8688
vn 0.0608 -0.1892 -0.9801
vn 0.0388 0.2732 -0.9612
vn 0.0966 0.4449 0.8904
vn 0.0115 0.4126 0.9108
vn 0.0794 0.4893 0.8685
vn -0.0319 0.4318 0.9014
vn -0.0585 0.1853 -0.9809
vn 0.0155 0.2186 -0.9757
vn 0.0717 0.2716 -0.9597
vn -0.0284 0.2130 -0.9766
vn 0.1366 -0.1191 0.9834
vn 0.0158 -0.1390 0.9902
vn 0.0860 -0.1278 0.9881
vn -0.0226 -0.1634 0.9863
vn -0.0546 -0.1656 -0.9847
vn 0.0196 -0.1682 -0.9856
vn 0.0935 -0.1560 -0.9833
vn -0.0223 -0.1955 -0.9805
vn -0.0570 -0.9252 0.3752
vn 0.0263 -0.9127 0.4078
vn 0.1936 -0.8943 0.4035
vn -0.0096 -0.9425 0.3340
vn -0.1318 -0.9877 -0.0837
vn 0.0294 -0.9926 -0.1178
vn 0.2199 -0.9646 -0.1457
vn -0.0096 -0.9966 -0.0812
vn -0.1157 0.9868 0.1137
vn 0.0071 0.9920 0.1259
vn 0.1080 0.9877 0.1130
vn -0.0364 0.9947 0.0965
vn -0.1336 0.9531 -0.2717
vn 0.0079 0.9558 -0.2940
vn 0.0995 0.9587 -0.2664
vn -0.0350 0.9711 -0.2362
vn 0.6080 0.7935 -0.0261
vn -0.2508 0.2685 -0.9300
vn -0.9689 0.1717 0.1781
vn -0.0553 -0.0000 0.9985
vn -0.1854 -0.9575 0.2211
vn -0.1530 0.9634 0.2199
vn 0.9995 -0.0304 -0.0000
vn 0.6438 -0.7652 -0.0000
vn 0.7133 -0.0229 -0.7004
vn 0.3459 -0.0000 0.9383
vn -0.9678 -0.1983 0.1549
vn -0.9686 -0.1863 -0.1644
vn -0.9690 0.1747 -0.1749
vn 0.6455 0.7637 -0.0128
vn -0.9675 0.2004 0.1539
vn -0.2522 -0.2712 0.9289
vn -0.2434 0.2707 0.9314
vn 0.0244 -0.9997 -0.0000
vn -0.1581 -0.9628 -0.2190
vn -0.1232 0.9683 -0.2175
vn 0.0727 0.9972 -0.0167
vn 0.9995 -0.0320 0.0011
vn 0.6116 -0.0739 -0.7877
vn 0.3118 -0.0095 0.9501
vn -0.9690 -0.1715 0.1775
vn -0.9677 0.1998 -0.1538
vn -0.1365 -0.2597 -0.9560
vn -0.0115 -0.0934 -0.9956
vt 0.622145 0.511543
vt 0.576826 0.509028
vt 0.577236 0.415627
vt 0.622959 0.418462
vt 0.528048 0.511294
vt 0.527848 0.417793
vt 0.565092 0.420699
vt 0.508699 0.439418
vt 0.513672 0.329679
vt 0.570749 0.307416
vt 0.618905 0.445015
vt 0.625036 0.335133
vt 0.616474 0.437462
vt 0.562228 0.457506
vt 0.565447 0.354692
vt 0.620363 0.331847
vt 0.581631 0.452172
vt 0.533885 0.434824
vt 0.533380 0.327277
vt 0.581597 0.347577
vt 0.512619 0.505457
vt 0.514967 0.411695
vt 0.615529 0.508000
vt 0.615843 0.412272
vt 0.531214 0.260560
vt 0.576930 0.260673
vt 0.619793 0.260779
vt 0.573628 0.255186
vt 0.625161 0.257807
vt 0.535659 0.251594
vt 0.580641 0.251926
vt 0.521468 0.252533
vt 0.612804 0.251092
vt 0.568089 0.257982
vt 0.618691 0.254847
vt 0.522891 0.250390
vt 0.619793 0.915449
vt 0.576451 0.897453
vt 0.577150 0.815963
vt 0.623603 0.840532
vt 0.577827 0.684011
vt 0.622940 0.719961
vt 0.580577 0.551204
vt 0.613170 0.598578
vt 0.560043 0.900381
vt 0.497879 0.910382
vt 0.496485 0.837168
vt 0.563046 0.821617
vt 0.500443 0.717283
vt 0.565433 0.690288
vt 0.512376 0.594117
vt 0.560159 0.553971
vt 0.514732 0.891724
vt 0.511927 0.807689
vt 0.514404 0.672474
vt 0.534057 0.536388
vt 0.629534 0.892534
vt 0.636560 0.810460
vt 0.637024 0.675946
vt 0.613037 0.536961
vt 0.608445 0.911820
vt 0.543912 0.901164
vt 0.544885 0.813107
vt 0.606806 0.825957
vt 0.552297 0.670706
vt 0.612347 0.687808
vt 0.559563 0.527790
vt 0.612016 0.548783
vt 0.478014 0.905186
vt 0.481612 0.819589
vt 0.490453 0.681607
vt 0.504848 0.543332
vt 0.573603 0.907643
vt 0.516131 0.908584
vt 0.521465 0.835701
vt 0.576903 0.834898
vt 0.522882 0.718024
vt 0.576880 0.716638
vt 0.529197 0.599815
vt 0.576465 0.597944
vt 0.627122 0.908858
vt 0.628371 0.835965
vt 0.627018 0.718282
vt 0.620388 0.600041
vt 0.516024 0.317899
vt 0.503021 0.314282
vt 0.503021 0.264225
vt 0.615239 0.304320
vt 0.590796 0.271540
vt 0.611696 0.276339
vt 0.597060 0.289473
vt 0.590843 0.319686
vt 0.571575 0.310486
vt 0.527021 0.287370
vt 0.550801 0.328202
vt 0.501557 0.326437
vt 0.592623 0.300705
vt 0.552226 0.268337
vt 0.589140 0.275507
vt 0.556366 0.285519
vt 0.552938 0.310718
vt 0.615239 0.271540
vt 0.647467 0.271540
vt 0.647137 0.321271
vt 0.552226 0.329118
vt 0.540380 0.322030
vt 0.606622 0.321634
vt 0.575990 0.321634
vt 0.541883 0.339908
vt 0.622544 0.295242
vt 0.612254 0.318983
vt 0.622544 0.269910
vt 0.603299 0.260285
vt 0.581865 0.261414
vt 0.516024 0.252607
vt 0.571575 0.284600
vt 0.547592 0.291561
vt 0.506064 0.290073
vt 0.589140 0.325800
vt 0.552938 0.260426
vt 0.616557 0.321278
vt 0.540380 0.271956
vt 0.567096 0.308156
vt 0.509608 0.339908
vt 0.570164 0.277699
s 0
usemtl Material
f 38/1/1 9/2/1 8/3/1 1/4/1
f 9/2/2 39/5/2 4/6/2 8/3/2
f 18/7/3 19/8/3 3/9/3 7/10/3
f 28/11/4 18/7/4 7/10/4 6/12/4
f 19/13/5 29/14/5 2/15/5 3/16/5
f 48/17/6 28/18/6 6/19/6 5/20/6
f 29/14/7 38/21/7 1/22/7 2/15/7
f 39/23/8 48/17/8 5/20/8 4/24/8
f 8/3/9 4/6/9 52/25/9 56/26/9
f 1/4/10 8/3/10 56/26/10 49/27/10
f 6/12/11 7/10/11 55/28/11 54/29/11
f 5/20/12 6/19/12 54/30/12 53/31/12
f 7/10/13 3/9/13 51/32/13 55/28/13
f 4/24/14 5/20/14 53/31/14 52/33/14
f 3/16/15 2/15/15 50/34/15 51/35/15
f 2/15/16 1/22/16 49/36/16 50/34/16
f 43/37/17 44/38/17 45/39/17 42/40/17
f 42/40/18 45/39/18 46/41/18 41/42/18
f 41/42/19 46/41/19 47/43/19 40/44/19
f 40/44/20 47/43/20 48/17/20 39/23/20
f 33/45/21 34/46/21 35/47/21 32/48/21
f 32/48/22 35/47/22 36/49/22 31/50/22
f 31/50/23 36/49/23 37/51/23 30/52/23
f 30/52/24 37/51/24 38/21/24 29/14/24
f 44/38/25 24/53/25 25/54/25 45/39/25
f 45/39/26 25/54/26 26/55/26 46/41/26
f 46/41/27 26/55/27 27/56/27 47/43/27
f 47/43/28 27/56/28 28/18/28 48/17/28
f 23/57/29 33/45/29 32/48/29 22/58/29
f 22/58/30 32/48/30 31/50/30 21/59/30
f 21/59/31 31/50/31 30/52/31 20/60/31
f 20/60/32 30/52/32 29/14/32 19/13/32
f 24/61/33 14/62/33 15/63/33 25/64/33
f 25/64/34 15/63/34 16/65/34 26/66/34
f 26/66/35 16/65/35 17/67/35 27/68/35
f 27/68/36 17/67/36 18/7/36 28/11/36
f 14/62/37 23/69/37 22/70/37 15/63/37
f 15/63/38 22/70/38 21/71/38 16/65/38
f 16/65/39 21/71/39 20/72/39 17/67/39
f 17/67/40 20/72/40 19/8/40 18/7/40
f 13/73/41 43/74/41 42/75/41 12/76/41
f 12/76/42 42/75/42 41/77/42 11/78/42
f 11/78/43 41/77/43 40/79/43 10/80/43
f 10/80/44 40/79/44 39/5/44 9/2/44
f 34/81/45 13/73/45 12/76/45 35/82/45
f 35/82/46 12/76/46 11/78/46 36/83/46
f 36/83/47 11/78/47 10/80/47 37/84/47
f 37/84/48 10/80/48 9/2/48 38/1/48
f 58/85/49 67/86/49 68/87/49
f 60/88/50 69/89/50 64/90/50
f 73/91/51 72/92/51 62/93/51
f 72/94/52 57/95/52 58/96/52
f 70/97/53 57/98/53 61/99/53
f 58/85/54 71/100/54 62/101/54
f 67/102/55 66/103/55 65/104/55
f 57/98/56 59/105/56 65/106/56
f 60/88/57 68/107/57 65/108/57
f 58/96/58 57/95/58 66/109/58
f 73/91/59 70/110/59 61/111/59
f 63/112/60 70/110/60 73/91/60 69/113/60
f 64/114/61 69/113/61 73/91/61
f 58/85/62 68/87/62 60/115/62
f 73/91/63 62/93/63 71/116/63
f 57/95/64 72/94/64 61/117/64
f 72/94/65 58/96/65 62/118/65
f 57/98/66 70/97/66 59/105/66
f 59/105/67 70/97/67 63/119/67
f 71/100/68 60/115/68 64/120/68
f 60/115/69 71/100/69 58/85/69
f 67/102/70 65/104/70 68/121/70
f 57/98/56 65/106/56 66/122/56
f 60/88/71 65/108/71 59/123/71
f 58/96/72 66/109/72 67/124/72
f 73/91/73 61/111/73 72/92/73
f 64/114/74 73/91/74 71/116/74
f 63/125/75 69/89/75 59/123/75
f 59/123/76 69/89/76 60/88/76
