# Blender 4.3.0
# www.blender.org
mtllib shady_hat.mtl
o Cylinder
v 0.000000 -0.138582 1.115159
v -0.000000 -0.120831 0.944312
v 0.707107 -0.225936 0.788536
v 0.581472 -0.214055 0.675722
v 1.000000 -0.288567 0.000000
v 0.832462 -0.214055 0.000000
v 0.707107 -0.225936 -0.788536
v 0.581472 -0.214055 -0.675722
v 0.000000 -0.138582 -1.115159
v -0.000000 -0.120831 -0.944312
v -0.707107 -0.225936 -0.788536
v -0.581472 -0.214055 -0.675722
v -1.000000 -0.288567 0.000000
v -0.832462 -0.214055 0.000000
v -0.707107 -0.225936 0.788536
v -0.581472 -0.214055 0.675722
v 0.725544 -0.151424 0.809097
v -0.000000 -0.064070 1.144236
v 1.026074 -0.214055 0.000000
v 0.725544 -0.151424 -0.809097
v -0.000000 -0.064070 -1.144236
v -0.725544 -0.151424 -0.809097
v -1.026074 -0.214055 0.000000
v -0.725544 -0.151424 0.809097
v -0.000000 0.341442 0.824516
v 0.442253 0.341442 0.620233
v 0.633149 0.314285 0.106296
v 0.442253 0.341442 -0.407641
v -0.000000 0.341442 -0.611923
v -0.442253 0.341442 -0.407641
v -0.633149 0.314285 0.106296
v -0.442253 0.341442 0.620233
vn 0.3619 -0.3301 0.8718
vn 0.8832 -0.3091 0.3526
vn 0.8832 -0.3091 -0.3526
vn 0.3619 -0.3301 -0.8718
vn -0.3619 -0.3301 -0.8718
vn -0.8832 -0.3091 -0.3526
vn -0.3685 0.4773 -0.7977
vn -0.8832 -0.3091 0.3526
vn -0.3619 -0.3301 0.8718
vn -0.0000 -0.9969 -0.0792
vn -0.0103 0.9619 -0.2731
vn -0.2571 0.9515 -0.1691
vn -0.0000 1.0000 -0.0000
vn -0.0347 0.9185 0.3939
vn 0.0103 0.9619 0.2731
vn 0.2571 0.9515 0.1691
vn 0.0347 0.9185 -0.3939
vn -0.0000 0.9986 0.0528
vn 0.8695 0.3738 -0.3230
vn 0.4370 0.1972 0.8776
vn -0.4082 0.2290 0.8837
vn -0.8701 0.3891 -0.3026
vn 0.4243 0.5286 -0.7352
vn 0.9019 0.2728 0.3350
vn -0.9095 0.2603 0.3241
vn 0.3605 -0.3391 0.8689
vn 0.8814 -0.3152 0.3518
vn 0.8814 -0.3152 -0.3518
vn 0.3605 -0.3391 -0.8689
vn -0.3605 -0.3391 -0.8689
vn -0.8814 -0.3152 -0.3518
vn -0.4243 0.5286 -0.7352
vn -0.8814 -0.3152 0.3518
vn -0.3605 -0.3391 0.8689
vn -0.0000 -0.9660 0.2584
vn -0.0000 -0.9969 0.0792
vn -0.0000 -0.9660 -0.2584
vn -0.0347 0.9185 -0.3939
vn -0.2571 0.9515 0.1691
vn -0.0103 0.9619 0.2731
vn 0.0347 0.9185 0.3939
vn 0.2571 0.9515 -0.1691
vn 0.0103 0.9619 -0.2731
vn -0.0000 0.9986 -0.0528
vn 0.8701 0.3891 -0.3026
vn 0.4082 0.2290 0.8837
vn -0.4370 0.1972 0.8776
vn -0.8695 0.3738 -0.3230
vn 0.3685 0.4773 -0.7977
vn 0.9095 0.2603 0.3241
vn -0.9019 0.2728 0.3350
vt 1.000000 0.500000
vt 0.875000 0.500000
vt 0.875000 1.000000
vt 0.750000 0.500000
vt 0.750000 1.000000
vt 0.625000 0.500000
vt 0.625000 1.000000
vt 0.500000 0.500000
vt 0.375000 0.500000
vt 0.375000 1.000000
vt 0.250000 0.500000
vt 0.250000 1.000000
vt 0.113993 0.108269
vt 0.250000 0.051933
vt 0.125000 0.500000
vt 0.125000 1.000000
vt 0.000000 0.500000
vt 0.580294 0.080294
vt 0.919706 0.080294
vt 0.510000 0.250000
vt 0.250000 0.448067
vt 0.250000 0.490000
vt 0.419706 0.419706
vt 0.386007 0.391731
vt 0.490000 0.250000
vt 0.386007 0.108269
vt 0.444714 0.250000
vt 0.419706 0.080294
vt 0.250000 0.010000
vt 0.080294 0.080294
vt 0.010000 0.250000
vt 0.113993 0.391731
vt 0.055286 0.250000
vt 0.080294 0.419706
vt 1.000000 1.000000
vt 0.500000 1.000000
vt 0.000000 1.000000
vt 0.580294 0.419706
vt 0.919706 0.419706
vt 0.750000 0.490000
vt 0.990000 0.250000
vt 0.750000 0.010000
s 0
f 1/1/1 3/2/1 17/3/1
f 3/2/2 5/4/2 19/5/2
f 19/5/3 5/4/3 7/6/3
f 20/7/4 7/6/4 9/8/4
f 9/8/5 11/9/5 22/10/5
f 11/9/6 13/11/6 23/12/6
f 12/13/7 30/13/7 29/14/7
f 23/12/8 13/11/8 15/15/8
f 24/16/9 15/15/9 1/17/9
f 11/18/10 7/19/10 13/20/10
f 2/21/11 18/22/11 17/23/11
f 4/24/12 17/23/12 19/25/12
f 8/26/13 6/27/13 19/25/13
f 10/14/14 8/26/14 20/28/14
f 10/14/15 21/29/15 22/30/15
f 12/13/16 22/30/16 23/31/16
f 16/32/13 14/33/13 23/31/13
f 2/21/17 16/32/17 24/34/17
f 28/26/18 31/33/18 27/27/18
f 6/27/19 8/26/19 28/26/19
f 2/21/20 4/24/20 26/24/20
f 2/21/21 25/21/21 32/32/21
f 14/33/22 31/33/22 30/13/22
f 8/26/23 10/14/23 29/14/23
f 4/24/24 6/27/24 27/27/24
f 16/32/25 32/32/25 31/33/25
f 1/1/26 17/3/26 18/35/26
f 3/2/27 19/5/27 17/3/27
f 19/5/28 7/6/28 20/7/28
f 20/7/29 9/8/29 21/36/29
f 9/8/30 22/10/30 21/36/30
f 11/9/31 23/12/31 22/10/31
f 12/13/32 29/14/32 10/14/32
f 23/12/33 15/15/33 24/16/33
f 24/16/34 1/17/34 18/37/34
f 15/38/35 3/39/35 1/40/35
f 3/39/36 15/38/36 5/41/36
f 5/41/10 13/20/10 7/19/10
f 15/38/36 13/20/36 5/41/36
f 7/19/37 11/18/37 9/42/37
f 2/21/38 17/23/38 4/24/38
f 4/24/13 19/25/13 6/27/13
f 8/26/39 19/25/39 20/28/39
f 10/14/40 20/28/40 21/29/40
f 10/14/41 22/30/41 12/13/41
f 12/13/13 23/31/13 14/33/13
f 16/32/42 23/31/42 24/34/42
f 2/21/43 24/34/43 18/22/43
f 27/27/44 32/32/44 26/24/44
f 26/24/13 32/32/13 25/21/13
f 32/32/44 27/27/44 31/33/44
f 31/33/18 28/26/18 30/13/18
f 30/13/13 28/26/13 29/14/13
f 6/27/45 28/26/45 27/27/45
f 2/21/46 26/24/46 25/21/46
f 2/21/47 32/32/47 16/32/47
f 14/33/48 30/13/48 12/13/48
f 8/26/49 29/14/49 28/26/49
f 4/24/50 27/27/50 26/24/50
f 16/32/51 31/33/51 14/33/51
