# Blender 4.3.0
# www.blender.org
mtllib small_corridor.mtl
o small_corridor_rough
v 20.916672 -6.440477 -10.988097
v 24.886139 -6.440477 -10.988097
v 20.916672 -6.440478 -16.988098
v 24.886139 -6.440478 -16.988098
v 24.886139 -6.440477 -10.988097
v 20.916672 -6.440477 -10.988097
v 24.886139 -7.440477 -10.988097
v 20.916672 -7.440477 -10.988097
v 20.916672 -6.440477 -10.988097
v 20.916672 -6.440478 -16.988098
v 20.916672 -7.440477 -10.988097
v 20.916672 -7.440478 -16.988098
v 20.916672 -6.440475 17.011902
v 25.386139 -6.440475 17.011902
v 20.916672 -6.440475 11.011903
v 25.386139 -6.440475 11.011903
v 20.916672 -6.440475 17.011902
v 20.916672 -6.440475 11.011903
v 20.916672 -7.440475 17.011902
v 20.916672 -7.440475 11.011903
v 20.916672 -6.440475 11.011903
v 25.386139 -6.440475 11.011903
v 20.916672 -7.440475 11.011903
v 25.386139 -7.440475 11.011903
v 25.416672 12.559524 5.511901
v 25.416672 12.559525 15.511901
v 25.416672 -7.440476 5.511902
v 25.416672 -7.440475 15.511903
v 25.416672 12.559525 15.511901
v 24.916672 12.559525 15.511901
v 25.416672 -7.440475 15.511903
v 24.916672 -7.440475 15.511903
v 24.916672 12.559525 15.511901
v 24.916672 12.559524 5.511901
v 24.916672 -7.440475 15.511903
v 24.916672 -7.440476 5.511902
v 24.916672 12.559524 5.511901
v 25.416672 12.559524 5.511901
v 24.916672 -7.440476 5.511902
v 25.416672 -7.440476 5.511902
v 25.416672 12.559523 -15.488099
v 25.416672 12.559524 -5.488099
v 25.416672 -7.440477 -15.488097
v 25.416672 -7.440477 -5.488098
v 25.416672 12.559524 -5.488099
v 24.916672 12.559524 -5.488099
v 25.416672 -7.440477 -5.488098
v 24.916672 -7.440477 -5.488098
v 24.916672 12.559524 -5.488099
v 24.916672 12.559523 -15.488099
v 24.916672 -7.440477 -5.488098
v 24.916672 -7.440477 -15.488097
v 21.416672 12.559525 17.011902
v 21.416672 12.559525 11.511901
v 21.416672 -7.440475 17.011902
v 21.416672 -7.440475 11.511903
v 21.416672 12.559525 11.511901
v 25.476791 12.559525 11.511901
v 21.416672 -7.440475 11.511903
v 25.476791 -7.440475 11.511903
v 25.466043 12.559523 -11.488099
v 21.416672 12.559523 -11.488099
v 25.466043 -7.440477 -11.488097
v 21.416672 -7.440477 -11.488097
v 21.416672 12.559523 -11.488099
v 21.416672 12.559523 -16.988098
v 21.416672 -7.440477 -11.488097
v 21.416672 -7.440478 -16.988098
v 2.416672 12.559525 13.511901
v 2.416672 12.559525 16.511902
v 2.416672 -7.440475 13.511903
v 2.416672 -7.440475 16.511902
v -1.583328 12.559525 16.511902
v -1.583328 12.559525 13.511901
v -1.583328 -7.440475 16.511902
v -1.583328 -7.440475 13.511903
v -1.583328 12.559525 13.511901
v 2.416672 12.559525 13.511901
v -1.583328 -7.440475 13.511903
v 2.416672 -7.440475 13.511903
v 24.916672 12.559525 15.011901
v 24.916672 12.559525 15.511901
v 24.916672 -7.440475 15.011903
v 24.916672 -7.440475 15.511903
v -25.083328 12.559525 15.511901
v -25.083328 12.559525 15.011901
v -25.083328 -7.440475 15.511903
v -25.083328 -7.440475 15.011903
v -25.083328 12.559525 15.011901
v 24.916672 12.559525 15.011901
v -25.083328 -7.440475 15.011903
v 24.916672 -7.440475 15.011903
v 2.916672 -6.440475 13.011903
v 2.916672 -6.440475 16.511902
v 2.916672 -7.440475 13.011903
v 2.916672 -7.440475 16.511902
v -2.083328 -6.440475 16.511902
v 2.916672 -6.440475 16.511902
v -2.083328 -6.440475 13.011903
v 2.916672 -6.440475 13.011903
v -2.083328 -6.440475 16.511902
v -2.083328 -6.440475 13.011903
v -2.083328 -7.440475 16.511902
v -2.083328 -7.440475 13.011903
v -2.083328 -6.440475 13.011903
v 2.916672 -6.440475 13.011903
v -2.083328 -7.440475 13.011903
v 2.916672 -7.440475 13.011903
v 25.416672 12.559524 -5.488099
v 25.416672 12.559524 5.511901
v 25.416672 5.559523 -5.488099
v 25.416672 5.559524 5.511901
v 25.416672 12.559524 5.511901
v 24.916672 12.559524 5.511901
v 25.416672 5.559524 5.511901
v 24.916672 5.559524 5.511901
v 24.916672 12.559524 5.511901
v 24.916672 12.559524 -5.488099
v 24.916672 5.559524 5.511901
v 24.916672 5.559523 -5.488099
v 24.916672 5.559523 -5.488099
v 25.416672 5.559523 -5.488099
v 24.916672 5.559524 5.511901
v 25.416672 5.559524 5.511901
v 24.916672 12.559524 -5.488099
v 25.416672 12.559524 -5.488099
v 24.916672 5.559523 -5.488099
v 25.416672 5.559523 -5.488099
v -21.583328 12.559525 11.511901
v -21.583328 12.559525 17.011902
v -21.583328 -7.440475 11.511903
v -21.583328 -7.440475 17.011902
v -25.400436 12.559525 11.511901
v -21.583328 12.559525 11.511901
v -25.400436 -7.440475 11.511903
v -21.583328 -7.440475 11.511903
v -21.042942 -6.440475 11.011903
v -21.042942 -6.440475 17.011902
v -21.042942 -7.440475 11.011903
v -21.042942 -7.440475 17.011902
v -25.466801 -6.440475 17.011902
v -21.042942 -6.440475 17.011902
v -25.466801 -6.440475 11.011903
v -21.042942 -6.440475 11.011903
v -25.466801 -6.440475 11.011903
v -21.042942 -6.440475 11.011903
v -25.466801 -7.440475 11.011903
v -21.042942 -7.440475 11.011903
v -25.083328 12.559524 5.511901
v -25.083328 12.559525 15.511901
v -25.083328 -7.440476 5.511902
v -25.083328 -7.440475 15.511903
v -25.083328 12.559525 15.511901
v -25.583328 12.559525 15.511901
v -25.083328 -7.440475 15.511903
v -25.583328 -7.440475 15.511903
v -25.583328 12.559525 15.511901
v -25.583328 12.559524 5.511901
v -25.583328 -7.440475 15.511903
v -25.583328 -7.440476 5.511902
v -25.583328 12.559524 5.511901
v -25.083328 12.559524 5.511901
v -25.583328 -7.440476 5.511902
v -25.083328 -7.440476 5.511902
v 2.916672 -6.440478 -16.488098
v 2.916672 -6.440477 -12.988097
v 2.916672 -7.440478 -16.488098
v 2.916672 -7.440477 -12.988097
v -2.083328 -6.440477 -12.988097
v 2.916672 -6.440477 -12.988097
v -2.083328 -6.440478 -16.488098
v 2.916672 -6.440478 -16.488098
v 2.916672 -6.440477 -12.988097
v -2.083328 -6.440477 -12.988097
v 2.916672 -7.440477 -12.988097
v -2.083328 -7.440477 -12.988097
v -2.083328 -6.440477 -12.988097
v -2.083328 -6.440478 -16.488098
v -2.083328 -7.440477 -12.988097
v -2.083328 -7.440478 -16.488098
v 24.916672 -6.940477 -14.988097
v 24.916672 -6.940475 15.011903
v 24.916672 -7.440477 -14.988097
v 24.916672 -7.440475 15.011903
v -25.083328 -6.940475 15.011903
v 24.916672 -6.940475 15.011903
v -25.083328 -6.940477 -14.988097
v 24.916672 -6.940477 -14.988097
v -25.083328 -6.940475 15.011903
v -25.083328 -6.940477 -14.988097
v -25.083328 -7.440475 15.011903
v -25.083328 -7.440477 -14.988097
v -25.083328 -6.940477 -14.988097
v 24.916672 -6.940477 -14.988097
v -25.083328 -7.440477 -14.988097
v 24.916672 -7.440477 -14.988097
v -25.083328 12.559524 -5.488099
v -25.083328 12.559524 5.511901
v -25.083328 5.559523 -5.488099
v -25.083328 5.559524 5.511901
v -25.083328 12.559524 5.511901
v -25.583328 12.559524 5.511901
v -25.083328 5.559524 5.511901
v -25.583328 5.559524 5.511901
v -25.583328 12.559524 5.511901
v -25.583328 12.559524 -5.488099
v -25.583328 5.559524 5.511901
v -25.583328 5.559523 -5.488099
v -25.583328 5.559523 -5.488099
v -25.083328 5.559523 -5.488099
v -25.583328 5.559524 5.511901
v -25.083328 5.559524 5.511901
v -25.583328 12.559524 -5.488099
v -25.083328 12.559524 -5.488099
v -25.583328 5.559523 -5.488099
v -25.083328 5.559523 -5.488099
v 2.416672 12.559523 -16.988098
v 2.416672 12.559523 -13.488099
v 2.416672 -7.440478 -16.988098
v 2.416672 -7.440477 -13.488097
v 2.416672 12.559523 -13.488099
v -1.583328 12.559523 -13.488099
v 2.416672 -7.440477 -13.488097
v -1.583328 -7.440477 -13.488097
v -1.583328 12.559523 -13.488099
v -1.583328 12.559523 -16.988098
v -1.583328 -7.440477 -13.488097
v -1.583328 -7.440478 -16.988098
v 24.916672 12.559523 -15.488099
v 24.916672 12.559523 -14.988099
v 24.916672 -7.440477 -15.488097
v 24.916672 -7.440477 -14.988097
v 24.916672 12.559523 -14.988099
v -25.083328 12.559523 -14.988099
v 24.916672 -7.440477 -14.988097
v -25.083328 -7.440477 -14.988097
v -25.083328 12.559523 -14.988099
v -25.083328 12.559523 -15.488099
v -25.083328 -7.440477 -14.988097
v -25.083328 -7.440477 -15.488097
v -25.083328 12.559523 -15.488099
v -25.083328 12.559524 -5.488099
v -25.083328 -7.440477 -15.488097
v -25.083328 -7.440477 -5.488098
v -25.083328 12.559524 -5.488099
v -25.583328 12.559524 -5.488099
v -25.083328 -7.440477 -5.488098
v -25.583328 -7.440477 -5.488098
v -25.583328 12.559524 -5.488099
v -25.583328 12.559523 -15.488099
v -25.583328 -7.440477 -5.488098
v -25.583328 -7.440477 -15.488097
v -21.083328 -6.440478 -16.988098
v -21.083328 -6.440477 -10.988097
v -21.083328 -7.440478 -16.988098
v -21.083328 -7.440477 -10.988097
v -25.466801 -6.440477 -10.988097
v -21.083328 -6.440477 -10.988097
v -25.466801 -6.440478 -16.988098
v -21.083328 -6.440478 -16.988098
v -21.083328 -6.440477 -10.988097
v -25.466801 -6.440477 -10.988097
v -21.083328 -7.440477 -10.988097
v -25.466801 -7.440477 -10.988097
v -21.583328 12.559523 -16.988098
v -21.583328 12.559523 -11.488099
v -21.583328 -7.440478 -16.988098
v -21.583328 -7.440477 -11.488097
v -21.583328 12.559523 -11.488099
v -25.427223 12.559523 -11.488099
v -21.583328 -7.440477 -11.488097
v -25.427223 -7.440477 -11.488097
vn -0.0000 1.0000 -0.0000
vn -0.0000 -0.0000 1.0000
vn -1.0000 -0.0000 -0.0000
vn -0.0000 -0.0000 -1.0000
vn 1.0000 -0.0000 -0.0000
vn -0.0000 -1.0000 -0.0000
vt 0.565510 0.182703
vt 0.565510 0.181416
vt 0.566689 0.181416
vt 0.566689 0.182703
vt 0.565510 0.182488
vt 0.566689 0.182488
vt 0.566796 0.182488
vt 0.566796 0.182703
vt 0.563794 0.183131
vt 0.563794 0.181845
vt 0.565081 0.181845
vt 0.565081 0.183131
vt 0.563794 0.182917
vt 0.565081 0.182917
vt 1.500000 -2.250000
vt 1.500000 -4.750000
vt 2.750000 -4.750000
vt 2.750000 -2.250000
vt 1.562500 -4.750000
vt 1.562500 -2.250000
vt 6.500000 -6.500000
vt 6.500000 -9.000000
vt 7.750000 -9.000000
vt 7.750000 -6.500000
vt 6.562500 -9.000000
vt 6.562500 -6.500000
vt 3.500000 -5.250000
vt 3.500000 -7.750000
vt 4.187500 -7.750000
vt 4.187500 -5.250000
vt 4.750000 -0.500000
vt 4.750000 -3.000000
vt 5.375000 -3.000000
vt 5.375000 -0.500000
vt 5.437500 -3.000000
vt 5.437500 -0.500000
vt 6.750000 0.750000
vt 6.750000 -1.750000
vt 7.125000 -1.750000
vt 7.125000 0.750000
vt 7.250000 -1.750000
vt 7.250000 0.750000
vt 0.250000 -2.000000
vt 0.250000 -4.500000
vt 0.312500 -4.500000
vt 0.312500 -2.000000
vt 6.500000 -4.500000
vt 6.500000 -2.000000
vt 0.556933 0.177128
vt 0.556933 0.176913
vt 0.557684 0.176913
vt 0.557684 0.177128
vt 0.556933 0.176377
vt 0.558005 0.176377
vt 0.558005 0.177128
vt 0.558005 0.176913
vt 2.500000 -2.250000
vt 2.500000 -3.125000
vt 3.875000 -3.125000
vt 3.875000 -2.250000
vt 2.562500 -3.125000
vt 2.562500 -2.250000
vt 2.500000 -3.625000
vt 2.562500 -3.625000
vt 0.250000 -1.000000
vt 0.250000 -3.500000
vt 0.937500 -3.500000
vt 0.937500 -1.000000
vt 0.566796 0.181416
vt 6.500000 -6.250000
vt 6.500000 -8.750000
vt 7.750000 -8.750000
vt 7.750000 -6.250000
vt 6.562500 -8.750000
vt 6.562500 -6.250000
vt 0.560793 0.175841
vt 0.560793 0.175627
vt 0.561543 0.175627
vt 0.561543 0.175841
vt 0.560793 0.175091
vt 0.561865 0.175091
vt 0.561865 0.175841
vt 0.561865 0.175627
vt 4.750000 -3.750000
vt 4.750000 -3.812500
vt 8.500000 -3.812500
vt 8.500000 -3.750000
vt 4.750000 -7.500000
vt 11.000000 -7.500000
vt 11.000000 -3.750000
vt 11.000000 -3.812500
vt 2.250000 0.000000
vt 2.250000 -0.875000
vt 3.625000 -0.875000
vt 3.625000 0.000000
vt 2.312500 -0.875000
vt 2.312500 0.000000
vt 2.250000 -1.375000
vt 2.312500 -1.375000
vt 6.250000 -4.250000
vt 6.250000 -6.750000
vt 6.687500 -6.750000
vt 6.687500 -4.250000
vt 6.750000 -6.750000
vt 6.750000 -4.250000
vt 1.750000 -1.500000
vt 1.750000 -4.000000
vt 1.812500 -4.000000
vt 1.812500 -1.500000
vt 8.000000 -4.000000
vt 8.000000 -1.500000
vt 6.250000 -6.250000
vt 6.250000 -8.750000
vt 7.500000 -8.750000
vt 7.500000 -6.250000
vt 6.312500 -8.750000
vt 6.312500 -6.250000
vt 0.563794 0.180130
vt 0.563794 0.179915
vt 0.565081 0.179915
vt 0.565081 0.180130
vt 0.563794 0.178843
vt 0.564974 0.178843
vt 0.564974 0.180130
vt 0.564974 0.179915
vt 3.500000 -4.750000
vt 3.500000 -7.250000
vt 4.187500 -7.250000
vt 4.187500 -4.750000
vt 4.312500 -7.250000
vt 4.312500 -4.750000
s 1
usemtl Material.001
f 26/15/5 28/16/5 27/17/5 25/18/5
f 30/15/2 32/16/2 31/19/2 29/20/2
f 34/15/3 36/16/3 35/17/3 33/18/3
f 38/15/4 40/16/4 39/19/4 37/20/4
f 42/21/5 44/22/5 43/23/5 41/24/5
f 46/21/2 48/22/2 47/25/2 45/26/2
f 50/21/3 52/22/3 51/23/3 49/24/3
f 54/27/3 56/28/3 55/29/3 53/30/3
f 58/27/4 60/28/4 59/29/4 57/30/4
f 62/31/2 64/32/2 63/33/2 61/34/2
f 66/31/3 68/32/3 67/35/3 65/36/3
f 70/37/5 72/38/5 71/39/5 69/40/5
f 74/37/3 76/38/3 75/39/3 73/40/3
f 78/37/4 80/38/4 79/41/4 77/42/4
f 82/43/5 84/44/5 83/45/5 81/46/5
f 86/43/3 88/44/3 87/45/3 85/46/3
f 90/43/4 92/44/4 91/47/4 89/48/4
f 110/57/5 112/58/5 111/59/5 109/60/5
f 114/57/2 116/58/2 115/61/2 113/62/2
f 118/57/3 120/58/3 119/59/3 117/60/3
f 122/57/6 124/63/6 123/64/6 121/62/6
f 126/57/4 128/58/4 127/61/4 125/62/4
f 130/65/5 132/66/5 131/67/5 129/68/5
f 134/65/4 136/66/4 135/67/4 133/68/4
f 150/70/5 152/71/5 151/72/5 149/73/5
f 154/70/2 156/71/2 155/74/2 153/75/2
f 158/70/3 160/71/3 159/72/3 157/73/3
f 162/70/4 164/71/4 163/74/4 161/75/4
f 182/84/5 184/85/5 183/86/5 181/87/5
f 190/84/3 192/85/3 191/86/3 189/87/3
f 194/84/4 196/85/4 195/91/4 193/90/4
f 198/92/5 200/93/5 199/94/5 197/95/5
f 202/92/2 204/93/2 203/96/2 201/97/2
f 206/92/3 208/93/3 207/94/3 205/95/3
f 210/92/6 212/98/6 211/99/6 209/97/6
f 214/92/4 216/93/4 215/96/4 213/97/4
f 218/100/5 220/101/5 219/102/5 217/103/5
f 222/100/2 224/101/2 223/104/2 221/105/2
f 226/100/3 228/101/3 227/102/3 225/103/3
f 230/106/5 232/107/5 231/108/5 229/109/5
f 234/106/2 236/107/2 235/110/2 233/111/2
f 238/106/3 240/107/3 239/108/3 237/109/3
f 242/112/5 244/113/5 243/114/5 241/115/5
f 246/112/2 248/113/2 247/116/2 245/117/2
f 250/112/3 252/113/3 251/114/3 249/115/3
f 266/126/5 268/127/5 267/128/5 265/129/5
f 270/126/2 272/127/2 271/130/2 269/131/2
usemtl Material.002
f 2/1/1 4/2/1 3/3/1 1/4/1
f 6/1/2 8/5/2 7/6/2 5/4/2
f 10/1/3 12/5/3 11/7/3 9/8/3
f 14/9/1 16/10/1 15/11/1 13/12/1
f 18/9/3 20/13/3 19/14/3 17/12/3
f 22/9/4 24/13/4 23/14/4 21/12/4
f 94/49/5 96/50/5 95/51/5 93/52/5
f 98/49/1 100/53/1 99/54/1 97/55/1
f 102/49/3 104/50/3 103/51/3 101/52/3
f 106/49/4 108/50/4 107/56/4 105/55/4
f 138/1/5 140/5/5 139/7/5 137/8/5
f 142/1/1 144/2/1 143/69/1 141/8/1
f 146/1/4 148/5/4 147/7/4 145/8/4
f 166/76/5 168/77/5 167/78/5 165/79/5
f 170/76/1 172/80/1 171/81/1 169/82/1
f 174/76/2 176/77/2 175/83/2 173/82/2
f 178/76/3 180/77/3 179/78/3 177/79/3
f 186/84/1 188/88/1 187/89/1 185/90/1
f 254/118/5 256/119/5 255/120/5 253/121/5
f 258/118/1 260/122/1 259/123/1 257/124/1
f 262/118/2 264/119/2 263/125/2 261/124/2
