# Blender 4.3.0
# www.blender.org
mtllib store_shelf.mtl
o Cube
v -0.640283 -0.914982 6.486500
v -0.640283 -0.612324 6.486500
v -0.640283 -0.914982 -6.486500
v -0.640283 -0.612324 -6.486500
v 0.640283 -0.914982 6.486500
v 0.640283 -0.612324 6.486500
v 0.640283 -0.914982 -6.486500
v 0.640283 -0.612324 -6.486500
v -0.480688 -0.612324 -6.486500
v 0.480688 -0.612324 -6.486500
v 0.480688 -0.612324 6.486500
v -0.480688 -0.612324 6.486500
v -0.480688 6.403244 -6.486500
v 0.480688 6.403244 -6.486500
v 0.480688 6.403244 6.486500
v -0.480688 6.403244 6.486500
v -0.480688 0.088028 6.486500
v -0.480688 0.595766 6.486500
v -0.480688 1.625913 6.486500
v -0.480688 2.133651 6.486500
v -0.480688 3.334692 6.486500
v -0.480688 3.842430 6.486500
v -0.480688 5.109509 6.486500
v -0.480688 5.617248 6.486500
v -0.480688 5.617247 -6.486500
v -0.480688 5.109509 -6.486500
v -0.480688 3.842429 -6.486500
v -0.480688 3.334692 -6.486500
v -0.480688 2.133651 -6.486500
v -0.480688 1.625913 -6.486500
v -0.480688 0.595765 -6.486500
v -0.480688 0.088028 -6.486500
v 0.480688 0.088028 6.486500
v 0.480688 0.595766 6.486500
v 0.480688 1.625913 6.486500
v 0.480688 2.133651 6.486500
v 0.480688 3.334692 6.486500
v 0.480688 3.842430 6.486500
v 0.480688 5.109509 6.486500
v 0.480688 5.617248 6.486500
v 0.480688 5.617247 -6.486500
v 0.480688 5.109509 -6.486500
v 0.480688 3.842429 -6.486500
v 0.480688 3.334692 -6.486500
v 0.480688 2.133651 -6.486500
v 0.480688 1.625913 -6.486500
v 0.480688 0.595765 -6.486500
v 0.480688 0.088028 -6.486500
v -1.554290 -0.018827 6.486500
v -1.554290 0.488911 6.486500
v -1.554290 1.519058 6.486500
v -1.554290 2.026796 6.486500
v -1.554290 3.227838 6.486500
v -1.554290 3.735575 6.486500
v -1.554290 5.002655 6.486500
v -1.554290 5.510393 6.486500
v -1.554290 5.510392 -6.486500
v -1.554290 5.002655 -6.486500
v -1.554290 3.735575 -6.486500
v -1.554290 3.227837 -6.486500
v -1.554290 2.026796 -6.486500
v -1.554290 1.519058 -6.486500
v -1.554290 0.488911 -6.486500
v -1.554290 -0.018827 -6.486500
v 1.554290 -0.018827 6.486500
v 1.554290 0.488911 6.486500
v 1.554290 1.519058 6.486500
v 1.554290 2.026796 6.486500
v 1.554290 3.227838 6.486500
v 1.554290 3.735575 6.486500
v 1.554290 5.002655 6.486500
v 1.554290 5.510393 6.486500
v 1.554290 5.510392 -6.486500
v 1.554290 5.002655 -6.486500
v 1.554290 3.735575 -6.486500
v 1.554290 3.227837 -6.486500
v 1.554290 2.026796 -6.486500
v 1.554290 1.519058 -6.486500
v 1.554290 0.488911 -6.486500
v 1.554290 -0.018827 -6.486500
vn -1.0000 -0.0000 -0.0000
vn -0.0000 -0.0000 -1.0000
vn 1.0000 -0.0000 -0.0000
vn -0.0000 -0.0000 1.0000
vn -0.0000 -1.0000 -0.0000
vn -0.0000 1.0000 -0.0000
vn -0.0990 -0.9951 -0.0000
vn 0.0990 0.9951 -0.0000
vn -0.0990 0.9951 -0.0000
vn 0.0990 -0.9951 -0.0000
vt 0.467359 0.111054
vt 0.483425 0.111054
vt 0.483425 0.127120
vt 0.467359 0.127120
vt 0.483425 0.132476
vt 0.483425 0.137831
vt 0.483425 0.143186
vt 0.467359 0.143186
vt 0.483425 0.159253
vt 0.467359 0.159253
vt 0.483425 0.164608
vt 0.483425 0.169964
vt 0.483425 0.175319
vt 0.467359 0.175319
vt 0.451293 0.143186
vt 0.451293 0.159253
vt 0.494136 0.143186
vt 0.499492 0.143186
vt 0.499492 0.159253
vt 0.494136 0.159253
vt 0.488781 0.143186
vt 0.488781 0.159253
vt 2.709172 0.218319
vt -1.709172 0.218319
vt -1.709172 0.990381
vt 2.709172 0.990381
vt -1.709172 0.385698
vt 2.709172 0.385698
vt 2.709172 0.826773
vt -1.709172 0.826773
vt -1.709172 0.293044
vt 2.709172 0.293044
vt 2.709172 0.941822
vt -1.709172 0.941822
vt -0.349475 0.030898
vt 1.349475 0.030898
vt 1.349475 -0.001313
vt -0.349475 -0.001313
vt -1.709172 0.206951
vt 2.709172 0.206951
vt 2.709172 0.963356
vt -1.709172 0.963356
vt -1.709172 0.195866
vt 2.709172 0.195866
vt 2.709172 0.993863
vt -1.709172 0.993863
vt 1.334680 0.182829
vt -0.319178 0.182829
vt -0.319178 0.151474
vt 1.334680 0.151473
vt 1.334680 0.033838
vt -0.319178 0.033838
vt -0.319178 0.002483
vt 1.334680 0.002482
vt 1.333380 0.002401
vt -0.333380 0.002401
vt -0.333380 0.152555
vt 1.333380 0.152555
vt 1.328708 0.003419
vt -0.291503 0.003419
vt -0.291503 0.149379
vt 1.328708 0.149379
vt -0.349475 0.151740
vt 1.349475 0.151740
vt -0.349475 0.183951
vt 1.349475 0.183951
vt 1.333380 0.034001
vt -0.333380 0.034001
vt -0.333380 0.184155
vt 1.333380 0.184155
vt 1.328708 0.034137
vt -0.291503 0.034137
vt -0.291503 0.180097
vt 1.328708 0.180096
vt -0.327400 0.002546
vt 1.336701 0.002546
vt 1.336701 0.152460
vt -0.327400 0.152460
vt -0.327400 0.034096
vt 1.336701 0.034096
vt 1.336701 0.184010
vt -0.327400 0.184010
s 0
usemtl Material.001
f 1/1/1 2/2/1 4/3/1 3/4/1
f 3/4/2 4/3/2 9/5/2 10/6/2 8/7/2 7/8/2
f 7/8/3 8/7/3 6/9/3 5/10/3
f 5/10/4 6/9/4 11/11/4 12/12/4 2/13/4 1/14/4
f 3/15/5 7/8/5 5/10/5 1/16/5
f 9/17/6 4/18/6 2/19/6 12/20/6
f 8/7/6 10/21/6 11/22/6 6/9/6
f 25/23/1 24/24/1 16/25/1 13/26/1
f 14/21/6 13/17/6 16/20/6 15/22/6
f 24/12/4 40/11/4 15/11/4 16/12/4
f 41/6/2 25/5/2 13/5/2 14/6/2
f 40/24/3 41/23/3 14/26/3 15/25/3
f 11/27/3 10/28/3 48/29/3 33/30/3
f 48/6/2 47/6/2 79/6/2 80/6/2
f 34/31/3 47/32/3 46/33/3 35/34/3
f 39/35/7 42/36/7 74/37/7 71/38/7
f 36/39/3 45/40/3 44/41/3 37/42/3
f 40/11/4 39/11/4 71/11/4 72/11/4
f 38/43/3 43/44/3 42/45/3 39/46/3
f 43/47/8 38/48/8 70/49/8 75/50/8
f 10/6/2 9/5/2 32/5/2 48/6/2
f 48/6/2 32/5/2 31/5/2 47/6/2
f 47/6/2 31/5/2 30/5/2 46/6/2
f 46/6/2 30/5/2 29/5/2 45/6/2
f 45/6/2 29/5/2 28/5/2 44/6/2
f 44/6/2 28/5/2 27/5/2 43/6/2
f 43/6/2 27/5/2 26/5/2 42/6/2
f 42/6/2 26/5/2 25/5/2 41/6/2
f 12/12/4 11/11/4 33/11/4 17/12/4
f 17/12/4 33/11/4 34/11/4 18/12/4
f 18/12/4 34/11/4 35/11/4 19/12/4
f 19/12/4 35/11/4 36/11/4 20/12/4
f 20/12/4 36/11/4 37/11/4 21/12/4
f 21/12/4 37/11/4 38/11/4 22/12/4
f 22/12/4 38/11/4 39/11/4 23/12/4
f 23/12/4 39/11/4 40/11/4 24/12/4
f 9/28/1 12/27/1 17/30/1 32/29/1
f 22/48/9 27/47/9 59/50/9 54/49/9
f 31/32/1 18/31/1 19/34/1 30/33/1
f 25/5/2 26/5/2 58/5/2 57/5/2
f 29/40/1 20/39/1 21/42/1 28/41/1
f 17/12/4 18/12/4 50/12/4 49/12/4
f 27/44/1 22/43/1 23/46/1 26/45/1
f 28/51/10 21/52/10 53/53/10 60/54/10
f 64/55/1 49/56/1 50/57/1 63/58/1
f 62/59/1 51/60/1 52/61/1 61/62/1
f 60/54/1 53/53/1 54/49/1 59/50/1
f 58/37/1 55/38/1 56/63/1 57/64/1
f 26/36/10 23/35/10 55/38/10 58/37/10
f 19/12/4 20/12/4 52/12/4 51/12/4
f 27/5/2 28/5/2 60/5/2 59/5/2
f 24/65/9 25/66/9 57/64/9 56/63/9
f 32/67/10 17/68/10 49/56/10 64/55/10
f 21/12/4 22/12/4 54/12/4 53/12/4
f 18/69/9 31/70/9 63/58/9 50/57/9
f 29/5/2 30/5/2 62/5/2 61/5/2
f 30/71/10 19/72/10 51/60/10 62/59/10
f 23/12/4 24/12/4 56/12/4 55/12/4
f 20/73/9 29/74/9 61/62/9 52/61/9
f 31/5/2 32/5/2 64/5/2 63/5/2
f 65/75/3 80/76/3 79/77/3 66/78/3
f 67/60/3 78/59/3 77/62/3 68/61/3
f 69/53/3 76/54/3 75/50/3 70/49/3
f 71/38/3 74/37/3 73/64/3 72/63/3
f 41/66/8 40/65/8 72/63/8 73/64/8
f 34/11/4 33/11/4 65/11/4 66/11/4
f 33/79/7 48/80/7 80/76/7 65/75/7
f 42/6/2 41/6/2 73/6/2 74/6/2
f 47/81/8 34/82/8 66/78/8 79/77/8
f 36/11/4 35/11/4 67/11/4 68/11/4
f 35/72/7 46/71/7 78/59/7 67/60/7
f 44/6/2 43/6/2 75/6/2 76/6/2
f 45/74/8 36/73/8 68/61/8 77/62/8
f 38/11/4 37/11/4 69/11/4 70/11/4
f 37/52/7 44/51/7 76/54/7 69/53/7
f 46/6/2 45/6/2 77/6/2 78/6/2
