# Blender 4.3.0
# www.blender.org
mtllib trash_lid.mtl
o Cylinder
v 0.000000 0.154227 -1.000000
v -0.000000 -0.154227 -0.909843
v 0.707107 0.154227 -0.707107
v 0.643356 -0.154227 -0.643356
v 1.000000 0.154227 0.000000
v 0.909843 -0.154227 -0.000000
v 0.707107 0.154227 0.707107
v 0.643356 -0.154227 0.643356
v 0.000000 0.154227 1.000000
v -0.000000 -0.154227 0.909843
v -0.707107 0.154227 0.707107
v -0.643356 -0.154227 0.643356
v -1.000000 0.154227 0.000000
v -0.909843 -0.154227 -0.000000
v -0.707107 0.154227 -0.707107
v -0.643356 -0.154227 -0.643356
v 0.727197 -0.154227 -0.727197
v -0.000000 -0.154227 -1.028411
v 1.028411 -0.154227 -0.000000
v 0.727197 -0.154227 0.727197
v -0.000000 -0.154227 1.028411
v -0.727197 -0.154227 0.727197
v -1.028411 -0.154227 -0.000000
v -0.727197 -0.154227 -0.727197
v 0.627518 0.018496 -0.627518
v -0.000000 0.018496 -0.887444
v 0.887444 0.018496 -0.000000
v 0.627518 0.018496 0.627518
v -0.000000 0.018496 0.887444
v -0.627518 0.018496 0.627518
v -0.887444 0.018496 -0.000000
v -0.627518 0.018496 -0.627518
v 0.283715 0.308272 -0.074666
v 0.264169 0.257454 -0.074666
v 0.283715 0.308272 0.074666
v 0.264169 0.257454 0.074666
v -0.283715 0.308272 -0.074666
v -0.264169 0.257454 -0.074666
v -0.283715 0.308272 0.074666
v -0.264169 0.257454 0.074666
v 0.351309 0.188121 0.074666
v 0.351309 0.188121 -0.074666
v 0.327118 0.137304 -0.074666
v 0.327118 0.137304 0.074666
v -0.327118 0.137304 0.074666
v -0.351309 0.188121 0.074666
v -0.351309 0.188121 -0.074666
v -0.327118 0.137304 -0.074666
v 0.447498 0.188121 0.074666
v 0.447498 0.188121 -0.074666
v 0.447498 0.137304 -0.074666
v 0.447498 0.137304 0.074666
v -0.447498 0.137304 0.074666
v -0.447498 0.188121 0.074666
v -0.447498 0.188121 -0.074666
v -0.447498 0.137304 -0.074666
vn 0.3813 0.0848 -0.9206
vn 0.9206 0.0848 -0.3813
vn 0.9206 0.0848 0.3813
vn 0.3813 0.0848 0.9206
vn -0.3813 0.0848 0.9206
vn -0.9206 0.0848 0.3813
vn -0.3800 -0.1190 -0.9173
vn -0.9206 0.0848 -0.3813
vn -0.3813 0.0848 -0.9206
vn -0.0000 1.0000 -0.0000
vn -0.0000 -1.0000 -0.0000
vn -0.9173 -0.1190 0.3800
vn 0.9173 -0.1190 0.3800
vn 0.3800 -0.1190 -0.9173
vn -0.9173 -0.1190 -0.3800
vn -0.3800 -0.1190 0.9173
vn 0.3800 -0.1190 0.9173
vn 0.9173 -0.1190 -0.3800
vn 0.8715 0.4903 -0.0000
vn -0.0000 -0.0000 1.0000
vn -0.8858 -0.4641 -0.0000
vn -0.0000 -0.0000 -1.0000
vn -0.8715 0.4903 -0.0000
vn 0.8858 -0.4641 -0.0000
vn 1.0000 -0.0000 -0.0000
vn -1.0000 -0.0000 -0.0000
vt 0.000000 0.844234
vt 0.125000 0.844234
vt 0.125000 0.998461
vt 0.000000 0.998461
vt 0.250000 0.844234
vt 0.250000 0.998460
vt 0.375000 0.844234
vt 0.375000 0.998460
vt 0.500000 0.844234
vt 0.500000 0.998460
vt 0.625000 0.844234
vt 0.625000 0.998460
vt 0.750000 0.844234
vt 0.750000 0.998460
vt 0.480271 0.323641
vt 0.702187 0.370235
vt 0.875000 0.844234
vt 0.875000 0.998460
vt 1.000000 0.844234
vt 1.000000 0.998460
vt 0.484686 0.968028
vt 0.142502 0.826291
vt 0.000765 0.484107
vt 0.142502 0.141923
vt 0.484686 0.000186
vt 0.826870 0.141923
vt 0.968607 0.484107
vt 0.826870 0.826291
vt 0.480271 0.641800
vt 0.480271 0.662531
vt 0.731107 0.609866
vt 0.702187 0.595207
vt 0.835006 0.482721
vt 0.794108 0.482721
vt 0.731107 0.355576
vt 0.480271 0.302911
vt 0.229435 0.355576
vt 0.258355 0.370235
vt 0.125536 0.482721
vt 0.166434 0.482721
vt 0.229435 0.609866
vt 0.258355 0.595207
vt 0.548903 0.827509
vt 0.683862 0.827509
vt 0.683862 0.660658
vt 0.548903 0.660658
vt 0.242304 0.651383
vt 0.677117 0.651383
vt 0.662139 0.576069
vt 0.257282 0.576069
vt 0.567606 0.516321
vt 0.567606 0.445988
vt 0.400755 0.445988
vt 0.400755 0.516321
vt 0.242757 0.653181
vt 0.679086 0.653181
vt 0.664056 0.577715
vt 0.257787 0.577715
vt 0.814151 0.832433
vt 0.981002 0.832433
vt 0.981002 0.198431
vt 0.814151 0.198431
vt 0.663839 0.531896
vt 0.663654 0.433007
vt 0.313781 0.433663
vt 0.313967 0.532552
vt 0.625000 0.500000
vt 0.625000 0.750000
vt 0.731063 0.474754
vt 0.805028 0.474754
vt 0.805028 0.399288
vt 0.712460 0.399288
vt 0.209383 0.399288
vt 0.190780 0.474754
vt 0.981002 0.122906
vt 0.814151 0.122906
vt 0.209046 0.398000
vt 0.190508 0.473314
vt 0.416187 0.588496
vt 0.549758 0.588496
vt 0.549758 0.421645
vt 0.416187 0.421645
vt 0.728913 0.473314
vt 0.710375 0.398000
vt 0.715754 0.166851
vt 0.715754 0.333702
vt 0.772531 0.333702
vt 0.772531 0.166851
vt 0.737654 0.640432
vt 0.737654 0.890432
vt 0.987654 0.890432
vt 0.987654 0.640432
vt 0.802621 0.473314
vt 0.802621 0.398000
vt 0.875000 0.750000
vt 0.875000 0.500000
vt 0.823228 0.000000
vt 0.715754 0.000000
vt 0.715754 0.166851
vt 0.823228 0.166851
vt 0.116815 0.399288
vt 0.116815 0.474754
vt 0.981002 0.015432
vt 0.814151 0.015432
vt 0.116800 0.398000
vt 0.116800 0.473314
s 0
usemtl Material.001
f 1/1/1 3/2/1 17/3/1 18/4/1
f 3/2/2 5/5/2 19/6/2 17/3/2
f 5/5/3 7/7/3 20/8/3 19/6/3
f 7/7/4 9/9/4 21/10/4 20/8/4
f 9/9/5 11/11/5 22/12/5 21/10/5
f 11/11/6 13/13/6 23/14/6 22/12/6
f 10/15/7 29/15/7 28/16/7 8/16/7
f 13/13/8 15/17/8 24/18/8 23/14/8
f 15/17/9 1/19/9 18/20/9 24/18/9
f 1/21/10 15/22/10 13/23/10 11/24/10 9/25/10 7/26/10 5/27/10 3/28/10
f 2/29/11 18/30/11 17/31/11 4/32/11
f 4/32/11 17/31/11 19/33/11 6/34/11
f 6/34/11 19/33/11 20/35/11 8/16/11
f 8/16/11 20/35/11 21/36/11 10/15/11
f 10/15/11 21/36/11 22/37/11 12/38/11
f 12/38/11 22/37/11 23/39/11 14/40/11
f 14/40/11 23/39/11 24/41/11 16/42/11
f 16/42/11 24/41/11 18/30/11 2/29/11
f 25/32/11 27/34/11 28/16/11 29/15/11 30/38/11 31/40/11 32/42/11 26/29/11
f 6/34/12 27/34/12 25/32/12 4/32/12
f 16/42/13 32/42/13 31/40/13 14/40/13
f 12/38/14 30/38/14 29/15/14 10/15/14
f 8/16/15 28/16/15 27/34/15 6/34/15
f 4/32/16 25/32/16 26/29/16 2/29/16
f 2/29/17 26/29/17 32/42/17 16/42/17
f 14/40/18 31/40/18 30/38/18 12/38/18
f 35/43/19 41/44/19 42/45/19 33/46/19
f 35/47/20 39/48/20 40/49/20 36/50/20
f 34/51/21 43/52/21 44/53/21 36/54/21
f 37/55/22 33/56/22 34/57/22 38/58/22
f 35/59/10 33/60/10 37/61/10 39/62/10
f 40/63/11 38/64/11 34/65/11 36/66/11
f 45/67/11 53/67/11 56/68/11 48/68/11
f 42/69/22 50/70/22 51/71/22 43/72/22
f 38/58/22 48/73/22 47/74/22 37/55/22
f 37/61/23 47/75/23 46/76/23 39/62/23
f 36/50/20 44/77/20 41/78/20 35/47/20
f 33/56/22 42/69/22 43/72/22 34/57/22
f 40/79/24 45/80/24 48/81/24 38/82/24
f 39/48/20 46/83/20 45/84/20 40/49/20
f 50/85/25 49/86/25 52/87/25 51/88/25
f 54/89/26 55/90/26 56/91/26 53/92/26
f 46/83/20 54/93/20 53/94/20 45/84/20
f 43/95/11 51/95/11 52/96/11 44/96/11
f 41/97/10 49/98/10 50/99/10 42/100/10
f 48/73/22 56/101/22 55/102/22 47/74/22
f 47/75/10 55/103/10 54/104/10 46/76/10
f 44/77/20 52/105/20 49/106/20 41/78/20
